<?xml version="1.0" encoding="UTF-8" standalone="no"?>
<svg width="334px" height="124px" viewBox="0 0 334 124" version="1.1" xmlns="http://www.w3.org/2000/svg" xmlns:xlink="http://www.w3.org/1999/xlink">
    <!-- Generator: Sketch 3.8.3 (29802) - http://www.bohemiancoding.com/sketch -->
    <title>Page 1</title>
    <desc>Created with Sketch.</desc>
    <defs>
        <filter x="-50%" y="-50%" width="200%" height="200%" filterUnits="objectBoundingBox" id="filter-1">
            <feOffset dx="0" dy="2" in="SourceAlpha" result="shadowOffsetOuter1"></feOffset>
            <feGaussianBlur stdDeviation="2" in="shadowOffsetOuter1" result="shadowBlurOuter1"></feGaussianBlur>
            <feColorMatrix values="0 0 0 0 0.606079932   0 0 0 0 0.606079932   0 0 0 0 0.606079932  0 0 0 0.5 0" type="matrix" in="shadowBlurOuter1" result="shadowMatrixOuter1"></feColorMatrix>
            <feMerge>
                <feMergeNode in="shadowMatrixOuter1"></feMergeNode>
                <feMergeNode in="SourceGraphic"></feMergeNode>
            </feMerge>
        </filter>
    </defs>
    <g id="Page-1" stroke="none" stroke-width="1" fill="none" fill-rule="evenodd">
        <g id="Desktop-HD" transform="translate(-553.000000, -39.000000)">
            <g id="Page-1" filter="url(#filter-1)" transform="translate(557.000000, 41.000000)">
                <path d="M6.7116065,66.4114909 C5.7691405,67.7278636 4.98454,69.2429727 4.357642,70.9568182 C3.456578,73.4200364 3.006046,75.9598364 3.006046,78.5761364 C3.006046,82.1387455 4.080379,85.5621818 6.229045,88.8465273 C8.377711,92.1307909 10.5748695,93.7729636 12.820602,93.7729636 C14.4009685,93.7729636 15.918906,93.3903 17.3744145,92.6248909 C18.0190795,92.2858364 18.6542905,91.8717545 19.279803,91.3825636 C19.052255,91.6642636 18.822099,91.9362273 18.589498,92.1982909 C17.2309745,93.7291091 15.8239585,94.8771818 14.3683685,95.6425909 C12.91286,96.408 11.3949225,96.7907455 9.814556,96.7907455 C7.568905,96.7907455 5.371665,95.1485727 3.222999,91.8643091 C1.074333,88.5799636 0,85.1565273 0,81.5938364 C0,78.9775364 0.450532,76.4378182 1.351596,73.9746 C2.25266,71.5113 3.4794795,69.4586455 5.0320545,67.8164727 C5.5738665,67.3065818 6.13369,66.8382545 6.7116065,66.4114909 L6.7116065,66.4114909 Z M8.8669555,26.0795455 C8.777387,26.2071818 8.688226,26.3389091 8.5994725,26.4722727 C7.2548855,28.5046364 6.5825105,30.3414545 6.5825105,31.9835455 C6.5825105,32.9858182 7.0468975,33.7720909 7.9756715,34.3423636 C8.9044455,34.9129636 10.11741,35.1982636 11.614565,35.1982636 C13.16714,35.1982636 16.3277915,34.4884909 21.0965195,33.0692727 C22.20549,32.7346364 22.884711,32.5333636 23.134264,32.4638182 C23.383817,32.3942727 23.7372825,32.2969091 24.194742,32.1717273 C24.6522015,32.0465455 25.1442985,31.914 25.6711145,31.7749091 C24.922537,38.8444091 24.1601045,44.6823818 23.383817,49.2887455 C22.607448,53.8951091 21.387556,59.7191727 19.724141,66.7609364 C18.6983005,71.0472273 17.395197,75.7232182 15.814912,80.7888273 C15.204966,82.5701727 14.4009685,84.3097091 13.402838,86.0075182 C13.180343,85.2397364 13.0136755,84.4054364 12.9028355,83.5046182 C14.4409035,78.5550273 15.712711,73.9797545 16.718095,69.7787182 C18.3815915,62.7369545 19.6014835,56.9128909 20.377771,52.3065273 C21.1540585,47.7001636 21.916491,41.8621909 22.6650685,34.7925273 C22.1382525,34.9317 21.6461555,35.0639182 21.188696,35.1891818 C20.7312365,35.3144455 20.377771,35.4118091 20.128218,35.4814364 C19.8787465,35.5509818 19.199444,35.7528273 18.0904735,36.0868091 C13.321827,37.5062727 10.1611755,38.2160455 8.6086005,38.2160455 C7.1114455,38.2160455 5.898481,37.9307455 4.969707,37.3601455 C4.040933,36.7895455 3.5764645,36.0032727 3.5764645,35.0013273 C3.5764645,33.3589091 4.2488395,31.5220909 5.593508,29.4905455 C6.631003,27.9229091 7.722125,26.7856364 8.8669555,26.0795455 L8.8669555,26.0795455 Z" id="Fill-1" fill="#2D6393"></path>
                <path d="M28.305276,29.6206364 C27.77846,29.7597273 27.286363,29.8922727 26.8289035,30.0174545 C26.371444,30.1426364 26.0179785,30.24 25.7684255,30.3095455 C25.518954,30.3790909 24.8396515,30.5803636 23.730681,30.915 C18.9620345,32.3345455 15.801383,33.0439091 14.248808,33.0439091 C12.751653,33.0439091 11.5386885,32.7583636 10.6099145,32.1880909 C9.6811405,31.6178182 9.2167535,30.8315455 9.2167535,29.8292727 C9.2167535,28.1871818 9.889047,26.3503636 11.2337155,24.318 C12.578384,22.2864545 14.01311,20.9781818 15.537975,20.394 C16.97971,19.8368182 18.7124815,19.4269091 20.736371,19.1618182 C22.7602605,18.8975455 25.3664675,18.7658182 28.554829,18.7658182 C34.8760505,18.7658182 39.5269295,19.1274545 42.507303,19.8507273 C45.487758,20.5748182 46.9779855,21.7022727 46.9779855,23.2330909 C46.9779855,24.4014545 46.471952,27.2961818 45.460048,31.9164545 C44.4480625,36.5370545 43.4152945,40.6563545 42.361744,44.2746 C38.2030435,59.1931636 33.434397,71.5788818 28.055723,81.4317545 C26.863541,83.6306182 25.588229,85.4954182 24.2297055,87.0262364 C22.871182,88.5570545 21.464166,89.7052091 20.008576,90.4706182 C18.5530675,91.2360273 17.03513,91.6186909 15.454845,91.6186909 C13.2091125,91.6186909 11.0118725,89.9765182 8.8632065,86.6922545 C6.7145405,83.4079091 5.6402075,79.9844727 5.6402075,76.4218636 C5.6402075,73.8055636 6.0907395,71.2657636 6.9918035,68.8025455 C7.8928675,66.3393273 9.119687,64.2865909 10.672262,62.6444182 C11.559471,61.8094636 12.4951725,61.0857818 13.479448,60.4734545 C14.463642,59.8611273 15.205292,59.5549636 15.7043165,59.5549636 C16.147921,59.5549636 16.5013865,59.8054909 16.7647945,60.3064636 C17.0282025,60.8074364 17.1599065,61.5311182 17.1599065,62.4774273 C17.1599065,62.9227636 17.048985,63.7159909 16.8272235,64.8571909 C15.856803,70.1455091 15.3716335,74.6822455 15.3716335,78.4675636 C15.3716335,80.5271727 15.593395,82.3224273 16.0369995,83.8532455 C17.03513,82.1554364 17.8391275,80.4159 18.4490735,78.6345545 C20.02944,73.5689455 21.332462,68.8929545 22.3583025,64.6066636 C24.021799,57.5649 25.241691,51.7408364 26.0179785,47.1344727 C26.794266,42.5281091 27.5566985,36.6901364 28.305276,29.6206364 L28.305276,29.6206364 Z" id="Fill-2" fill="#FFFFFF"></path>
                <path d="M49.33358,70.6036909 C48.759168,71.5456636 48.301953,72.5409818 47.9618535,73.5897273 C47.573669,74.7865636 47.3796175,75.8163273 47.3796175,76.6791818 C47.3796175,77.7646636 48.0034185,78.3074455 49.2510205,78.3074455 C50.7481755,78.3074455 52.3908895,77.9247 54.1791625,77.1592909 C55.9674355,76.3938818 57.8665485,75.2597182 59.876583,73.7567182 C61.1423595,72.8103273 62.3723575,71.7866182 63.566577,70.6855909 C63.25541,71.0255455 62.9433465,71.3574 62.6303865,71.6809909 C60.8005485,73.5736909 58.880653,75.2715 56.8706185,76.7745 C54.8605025,78.2775 52.9613895,79.4116636 51.1731165,80.1770727 C49.3848435,80.9424818 47.742211,81.3251455 46.245056,81.3251455 C44.997454,81.3251455 44.3735715,80.7824455 44.3735715,79.6969636 C44.3735715,78.8341091 44.5677045,77.8042636 44.9558075,76.6075091 C45.343992,75.4106727 45.8845815,74.2833818 46.577739,73.2257182 C47.310424,72.2450455 48.2290105,71.3709818 49.33358,70.6036909 L49.33358,70.6036909 Z M50.1866405,27.8770909 C50.1204625,28.0120909 50.058115,28.1495455 49.999598,28.2910909 C49.1678905,30.4069091 48.751996,33.1486364 48.751996,36.5160273 C48.751996,40.9414909 49.888758,45.8679273 52.1622005,51.2954182 C53.1879595,53.7447273 54.13067,55.7904273 54.9900875,57.4326 C55.8495865,59.0747727 57.1110435,61.3013727 58.77454,64.1125636 C57.3669535,64.7561455 56.1309245,65.3645455 55.066616,65.9378455 C53.7457455,63.6822818 52.7181935,61.8530727 51.9840415,60.4503818 C51.124624,58.8082091 50.181995,56.7625091 49.1561545,54.3132 C46.882712,48.8857091 45.74595,43.9592727 45.74595,39.5338091 C45.74595,36.1660091 46.1618445,33.4243636 46.9936335,31.3093636 C47.62045,29.7940909 48.6847585,28.6502727 50.1866405,27.8770909 L50.1866405,27.8770909 Z M77.0443135,28.3761818 C76.1791095,29.6934545 75.495569,31.3216364 74.9936105,33.2599091 L74.4529395,35.0548364 C73.981625,36.6412909 73.2746125,38.7148909 72.3319835,41.2754727 C70.668487,45.5339455 69.698148,47.9971636 69.420885,48.6652091 C68.533676,51.0031636 67.7158235,52.9932273 66.967246,54.6354 L66.8009045,54.6354 C66.6172035,53.5903364 66.4484985,52.7112 66.2947895,51.9979909 L66.414839,51.6829909 C66.692102,51.0149455 67.662441,48.5517273 69.3259375,44.2932545 C70.268648,41.7325909 70.975579,39.6590727 71.4468935,38.0725364 L71.9875645,36.2773636 C72.708432,33.4939091 73.8035475,31.3510909 75.272911,29.8480909 C75.817168,29.3015455 76.407554,28.8106364 77.0443135,28.3761818 L77.0443135,28.3761818 Z" id="Fill-3" fill="#2D6393"></path>
                <path d="M77.087101,32.9007273 L77.627772,31.1056364 C78.3486395,28.3221818 79.443755,26.1785455 80.9131185,24.6755455 C81.856155,23.7297273 82.936845,22.95 84.1569,22.338 C85.376955,21.7251818 86.48617,21.4191818 87.48373,21.4191818 C89.313405,21.4191818 90.22865,22.1989091 90.22865,23.7575455 C90.22865,24.5364545 89.97926,25.7473636 89.48048,27.3894545 C88.980885,29.0315455 88.322365,30.8896364 87.50492,32.9629091 C86.68666,35.0367545 85.730665,37.3120364 84.635305,39.7892455 C83.539945,42.2663727 82.327225,44.8131273 80.99633,47.4294273 C78.584256,52.3836818 76.144472,56.5726091 73.676978,59.9960455 C71.90256,62.4453545 70.100432,64.6163182 68.270594,66.5090182 C66.440756,68.4016364 64.5208605,70.0994455 62.510826,71.6024455 C60.50071,73.1054455 58.601597,74.2396091 56.813324,75.0050182 C55.025051,75.7704273 53.3824185,76.1531727 51.8852635,76.1531727 C50.6376615,76.1531727 50.0138605,75.6103909 50.0138605,74.5249091 C50.0138605,73.6620545 50.207912,72.6322909 50.596015,71.4354545 C50.9841995,70.2386182 51.524789,69.1114091 52.2179465,68.0537455 C52.966524,67.0517182 53.909153,66.1610455 55.045915,65.3817273 C56.4875685,64.3797818 58.6085245,63.2385818 61.4087015,61.9582909 C59.745205,59.1471 58.483748,56.9205 57.624249,55.2783273 C56.7648315,53.6361545 55.8222025,51.5904545 54.796362,49.1411455 C52.5229195,43.7136545 51.386239,38.7872182 51.386239,34.362 C51.386239,30.9943636 51.802052,28.2526364 52.633841,26.1368182 C53.3824185,24.3278182 54.754797,23.0473636 56.7509765,22.2962727 C58.3589715,21.6556364 59.8007065,21.3357273 61.0760185,21.3357273 C62.8781465,21.3357273 64.091111,22.0246364 64.714912,23.4024545 C65.338713,24.7802727 65.8863115,28.0022727 66.357626,33.0676364 C66.8566505,38.4949636 67.660648,43.8528273 68.7697,49.1411455 C68.9637515,49.9482818 69.185513,51.0615818 69.435066,52.4811273 L69.6014075,52.4811273 C70.349985,50.8389545 71.1678375,48.8488909 72.0550465,46.5109364 C72.3323095,45.8428909 73.3026485,43.3796727 74.966145,39.1212 C75.9088555,36.5606182 76.6157865,34.4870182 77.087101,32.9007273 L77.087101,32.9007273 Z" id="Fill-4" fill="#FFFFFF"></path>
                <path d="M92.23518,59.9841818 C91.165085,61.4629636 90.630445,62.9226 90.630445,64.3630091 C90.630445,66.4783364 91.510645,68.1483273 93.271045,69.3729818 C95.031445,70.5976364 97.450365,71.2099636 100.527805,71.2099636 C103.7169,71.2099636 106.627265,70.7229 109.261345,69.7487727 C111.895425,68.7745636 114.54336,67.1602909 117.204335,64.9057909 C117.47084,64.6829182 117.73001,64.4607818 117.981845,64.2393 C116.95413,65.4448909 115.693325,66.6729818 114.198615,67.9235727 C111.536825,70.1780727 108.889705,71.7923455 106.255625,72.7664727 C103.621545,73.7406818 100.710365,74.2277455 97.522085,74.2277455 C94.444645,74.2277455 92.025725,73.6154182 90.265325,72.3907636 C88.504925,71.1661091 87.624725,69.4961182 87.624725,67.3807909 C87.624725,65.8777909 88.206635,64.3539273 89.37127,62.8092 C90.18627,61.7277273 91.140635,60.786 92.23518,59.9841818 L92.23518,59.9841818 Z M96.602765,32.5284545 C96.151255,33.0602727 95.72012,33.6100909 95.30936,34.1779091 C92.993945,37.3788818 91.836645,40.5796909 91.836645,43.7805 C91.836645,45.5617636 92.46012,47.0925818 93.707885,48.3729545 C95.03878,49.9594091 97.908395,51.3928636 102.31673,52.6731545 C105.31104,53.5081091 107.2377,54.3570545 108.09671,55.2199091 C108.901115,55.9435091 109.30291,56.9177182 109.30291,58.1423727 C109.30291,59.9236364 108.630535,61.5727636 107.285785,63.0896727 C106.648455,63.8092636 105.97771,64.3675909 105.274365,64.7645727 C105.955705,63.6301636 106.29719,62.4286636 106.29719,61.1601545 C106.29719,59.9355 105.895395,58.9612909 105.09099,58.2376091 C104.666375,57.8115 103.981775,57.3887455 103.036375,56.9694273 C103.07305,56.9013545 103.11054,56.8331182 103.14803,56.7646364 C103.50826,56.1244909 103.68919,55.6652455 103.68919,55.3869 C103.68919,54.8302091 103.0649,54.5518636 101.817135,54.5518636 C100.6036,54.5518636 99.37132,54.8111455 98.12111,55.3298727 C94.38189,54.1427727 91.90918,52.8296727 90.702165,51.3907364 C89.4544,50.1103636 88.83011,48.5795455 88.83011,46.7982818 C88.83011,43.5974727 89.988225,40.3966636 92.302825,37.1958545 C93.54896,35.4725182 94.982545,33.9169091 96.602765,32.5284545 L96.602765,32.5284545 Z M108.8351,32.0269091 C109.108125,31.6292727 109.403155,31.2471818 109.71856,30.8798182 C110.135025,30.3234545 111.021745,29.5715455 112.38035,28.6257273 C113.434145,30.1843636 113.960635,31.8403636 113.960635,33.5937273 C113.960635,35.3749091 113.655825,37.4623364 113.046205,39.8560091 C112.824525,40.6075091 112.71287,41.1781091 112.71287,41.5677273 C112.71287,41.9574273 112.997305,42.3192273 113.56536,42.6532091 C114.13423,42.9872727 114.806605,43.1542636 115.582485,43.1542636 C116.915825,43.1542636 118.322515,42.6114818 119.802555,41.5258364 C118.967995,42.6658091 117.99407,43.6508182 116.88078,44.4811091 C116.45861,44.7962727 116.042145,45.0674182 115.631385,45.2943818 C115.103265,45.1522636 114.54662,45.0094909 113.960635,44.8659818 C112.21572,44.4509182 110.835925,44.0645727 109.82288,43.7067818 C109.87667,43.4595273 109.949205,43.1818364 110.03967,42.8737909 C110.650105,40.4801182 110.954915,38.3926909 110.954915,36.6113455 C110.954915,34.8578182 110.428425,33.2018182 109.37463,31.6431818 C109.18555,31.7749091 109.005435,31.9025455 108.8351,32.0269091 L108.8351,32.0269091 Z" id="Fill-5" fill="#2D6393"></path>
                <path d="M105.44959,63.3360273 C107.085295,63.2524909 108.57593,62.4523091 109.919865,60.9354 C111.264615,59.4184909 111.93699,57.7693636 111.93699,55.9881 C111.93699,54.7634455 111.535195,53.7892364 110.731605,53.0656364 C109.87178,52.2027818 107.94512,51.3538364 104.95081,50.5188818 C100.542475,49.2385909 97.67286,47.8051364 96.341965,46.2186818 C95.0942,44.9383091 94.470725,43.4074909 94.470725,41.6262273 C94.470725,38.4254182 95.628025,35.2246091 97.94344,32.0236364 C100.25804,28.8229091 103.21812,26.1998182 106.82205,24.1543636 C110.42598,22.1080909 114.058435,21.0853636 117.717785,21.0853636 C119.49204,21.0853636 121.155455,21.5026364 122.70803,22.338 C124.260605,23.1725455 125.494515,24.2795455 126.40976,25.6573636 C127.32419,27.0343636 127.78222,28.5308182 127.78222,30.1450909 C127.78222,31.7315455 127.282625,33.3736364 126.285065,35.0715273 C125.28669,36.7693364 124.032405,38.1818455 122.521395,39.3091364 C121.010385,40.4363455 119.57517,40.9999909 118.216565,40.9999909 C117.440685,40.9999909 116.76831,40.833 116.200255,40.4989364 C115.631385,40.1649545 115.347765,39.8031545 115.347765,39.4134545 C115.347765,39.0238364 115.458605,38.4532364 115.680285,37.7017364 C116.289905,35.3080636 116.594715,33.2206364 116.594715,31.4394545 C116.594715,29.6860909 116.068225,28.0300909 115.01443,26.4714545 C113.655825,27.4172727 112.769105,28.1691818 112.353455,28.7255455 C111.29966,29.9503636 110.4814,31.3420909 109.89949,32.9007273 C109.26216,34.4870182 108.94268,35.9900182 108.94268,37.4094818 C108.94268,38.4115091 109.171695,39.2116909 109.62891,39.8101091 C110.08694,40.4085273 110.83511,40.9164545 111.87505,41.3339727 C112.914175,41.7514909 114.48794,42.2107364 116.594715,42.7117091 C120.11633,43.5744818 122.59719,44.4095182 124.038925,45.2166545 C124.371445,45.4114636 124.884895,45.8150727 125.577645,46.4274 C126.63144,47.5686 127.15793,49.0437 127.15793,50.8528636 C127.15793,52.7733818 126.562165,54.7146818 125.36982,56.6769273 C124.177475,58.6391727 122.333945,60.6640091 119.83923,62.7515182 C117.17744,65.0060182 114.529505,66.6202909 111.895425,67.5945 C109.26216,68.5686273 106.35098,69.0556909 103.1627,69.0556909 C100.08526,69.0556909 97.665525,68.4433636 95.905125,67.2187091 C94.144725,65.9940545 93.264525,64.3240636 93.264525,62.2087364 C93.264525,60.7058182 93.846435,59.1819545 95.01107,57.6371455 C96.175705,56.0924182 97.62396,54.8329909 99.357465,53.8588636 C101.090155,52.8846545 102.7878,52.3975909 104.451215,52.3975909 C105.69898,52.3975909 106.32327,52.6759364 106.32327,53.2326273 C106.32327,53.5108909 106.143155,53.9701364 105.78211,54.6103636 C104.70142,56.5586182 104.16026,58.3538727 104.16026,59.9960455 C104.16026,61.1650636 104.589765,62.2783636 105.44959,63.3360273 L105.44959,63.3360273 Z" id="Fill-6" fill="#FFFFFF"></path>
                <path d="M145.5916,58.3069091 C145.54759,58.6116818 145.525585,58.9603909 145.525585,59.3531182 C145.525585,61.4127273 145.941235,63.5836909 146.77335,65.8660091 C147.60465,68.1483273 148.72772,70.2706091 150.141745,72.2328545 C151.55577,74.1951 153.0733,75.7537364 154.695965,76.9088455 C156.317815,78.0638727 157.863055,78.6414273 159.3325,78.6414273 C160.325985,78.6414273 161.541965,78.0383455 162.98207,76.8320182 C160.16706,80.0501727 157.94863,81.6592091 156.32678,81.6592091 C154.857335,81.6592091 153.31128,81.0816545 151.68943,79.9265455 C150.06758,78.7715182 148.55005,77.2128818 147.136025,75.2506364 C145.722,73.2883909 144.59893,71.1661091 143.766815,68.8837909 C142.935515,66.6014727 142.519865,64.4305091 142.519865,62.3708182 C142.519865,61.2018818 142.713835,60.4225636 143.101775,60.0328636 C143.268035,59.8658727 143.64212,59.5875273 144.224845,59.1979091 C144.70488,58.8993545 145.160465,58.6023545 145.5916,58.3069091 L145.5916,58.3069091 Z M145.316945,12.3676364 C144.95753,12.7840909 144.5973,13.221 144.236255,13.6791818 C142.21261,16.2949091 140.272095,19.3148182 138.413895,22.7389091 C136.55651,26.1621818 134.95585,29.6689091 133.6111,33.2599091 C132.26635,36.8500091 131.21989,40.4266091 130.470905,43.9892182 C129.722735,47.5518273 129.347835,50.8361727 129.347835,53.8421727 C129.347835,55.7904273 129.646125,57.5230909 130.24189,59.04 C130.83847,60.5569091 131.677105,61.7258455 132.75861,62.5469727 C133.8393,63.3680182 135.114775,63.7785818 136.58422,63.7785818 C137.15798,63.7785818 137.66654,63.7268727 138.11153,63.6233727 C137.522285,64.7716091 136.995795,65.5509273 136.531245,65.9613273 C135.8931,66.5180182 134.909395,66.7962818 133.5785,66.7962818 C132.109055,66.7962818 130.83358,66.3858 129.752075,65.5646727 C128.671385,64.7436273 127.831935,63.5746091 127.23617,62.0577 C126.640405,60.5407909 126.342115,58.8082091 126.342115,56.8598727 C126.342115,53.8539545 126.7162,50.5696091 127.465185,47.007 C128.213355,43.4443909 129.259815,39.8677909 130.604565,36.2773636 C131.949315,32.6871818 133.55079,29.1796364 135.408175,25.7563636 C137.26556,22.3330909 139.206075,19.3131818 141.230535,16.6966364 C142.60381,14.9539091 143.965675,13.5106364 145.316945,12.3676364 L145.316945,12.3676364 Z M147.396825,49.7324455 C147.43187,49.6896545 147.4661,49.6470273 147.501145,49.6045636 C149.510935,47.1413455 151.153975,45.9097364 152.42945,45.9097364 C153.62098,45.9097364 154.21756,46.5916091 154.21756,47.9554364 C154.21756,49.9586727 152.82228,52.0536273 150.032535,54.2399727 C150.818195,53.1252 151.211025,52.0362818 151.211025,50.9732182 C151.211025,49.6093909 150.61526,48.9274364 149.422915,48.9274364 C148.827965,48.9274364 148.15233,49.1958 147.396825,49.7324455 L147.396825,49.7324455 Z M146.800245,41.4189 C146.26642,42.0885 145.660875,42.9035727 144.98524,43.8639545 L144.81898,43.6969636 L144.89233,43.1568818 C145.41393,42.6071455 146.04963,42.0277091 146.800245,41.4189 L146.800245,41.4189 Z M152.368325,14.7223636 C152.79783,13.8403636 153.24119,13.0753636 153.69759,12.4265455 C154.265645,11.619 154.68863,11.2156364 154.96573,11.2156364 C155.35367,11.2156364 155.548455,12.0092727 155.548455,13.5957273 C155.548455,19.7468182 154.3284,25.2433636 151.88829,30.087 C151.38951,31.1162727 151.14012,31.7708182 151.14012,32.049 C151.14012,32.7444545 151.625045,33.0921818 152.59571,33.0921818 C154.59246,33.0921818 156.58269,32.3214545 158.5664,30.7791818 C157.719615,31.8673636 156.77177,32.8303636 155.72368,33.6681818 C153.685365,35.2962 151.641345,36.1103727 149.589175,36.1103727 C148.619325,36.1103727 148.133585,35.7624 148.133585,35.0666182 C148.133585,34.7882727 148.382975,34.1345455 148.88257,33.1044545 C151.321865,28.2616364 152.54192,22.7642727 152.54192,16.6131818 C152.54192,15.7459091 152.484055,15.1150909 152.368325,14.7223636 L152.368325,14.7223636 Z" id="Fill-7" fill="#2D6393"></path>
                <path d="M170.824815,68.9722364 C166.94297,73.9821273 163.99104,76.4871545 161.96658,76.4871545 C160.497135,76.4871545 158.951895,75.9096 157.330045,74.7544909 C155.708195,73.5994636 154.18985,72.0408273 152.775825,70.0785818 C151.3618,68.1163364 150.23873,65.9940545 149.40743,63.7117364 C148.575315,61.4294182 148.159665,59.2584545 148.159665,57.1988455 C148.159665,56.0298273 148.353635,55.2505091 148.741575,54.8608091 C148.90865,54.6938182 149.282735,54.4154727 149.864645,54.0258545 C154.52237,51.1312091 156.85164,48.3896455 156.85164,45.8011636 C156.85164,44.4373364 156.25506,43.7554636 155.06353,43.7554636 C153.788055,43.7554636 152.145015,44.9870727 150.135225,47.4502909 C148.125435,49.9135091 146.30228,52.9264636 144.666575,56.4890727 C143.69591,58.7435727 142.86461,60.1769455 142.171045,60.7892727 C141.533715,61.3459636 140.549195,61.6243091 139.2183,61.6243091 C137.748855,61.6243091 136.47338,61.2137455 135.39269,60.3927 C134.311185,59.5715727 133.47255,58.4025545 132.876785,56.8857273 C132.280205,55.3688182 131.981915,53.6361545 131.981915,51.6879 C131.981915,48.6819 132.356815,45.3975545 133.104985,41.8349455 C133.85397,38.2723364 134.90043,34.6957364 136.24518,31.1056364 C137.58993,27.5146364 139.19059,24.0079091 141.047975,20.5846364 C142.906175,17.1605455 144.84669,14.1406364 146.870335,11.5249091 C150.86302,6.45872727 154.757905,3.92645455 158.55662,3.92645455 C160.441715,3.92645455 162.12632,4.35763636 163.60962,5.22081818 C165.09292,6.08318182 166.236365,7.308 167.04077,8.89445455 C167.84436,10.4809091 168.246155,12.3316364 168.246155,14.4474545 C168.246155,17.0353636 167.608825,19.6175455 166.33335,22.1915455 C165.057875,24.7663636 163.401795,26.8674545 161.36348,28.4956364 C159.32598,30.1238182 157.281145,30.9379091 155.22979,30.9379091 C154.259125,30.9379091 153.7742,30.5901818 153.7742,29.8947273 C153.7742,29.6165455 154.02359,28.962 154.52237,27.9327273 C156.96248,23.0890909 158.182535,17.5925455 158.182535,11.4414545 C158.182535,9.855 157.988565,9.06136364 157.59981,9.06136364 C157.32271,9.06136364 156.899725,9.46472727 156.33167,10.2722727 C155.763615,11.079 155.215935,12.0673636 154.68863,13.2365455 C151.6389,20.1109091 149.43514,28.0300909 148.076535,36.9919636 C147.993405,37.4651182 147.90294,38.0914364 147.805955,38.8707545 C147.70897,39.6500727 147.59161,40.5407455 147.45306,41.5426909 L147.61932,41.7096818 C148.756245,40.0954091 149.691865,38.8916182 150.42618,38.0983909 C151.16131,37.3050818 152.138495,36.4492636 153.35855,35.5307727 C157.10103,32.5808182 160.59412,31.1056364 163.83782,31.1056364 C165.50205,31.1056364 166.867175,31.5924545 167.934825,32.5669091 C169.00166,33.5405455 169.535485,34.7931818 169.535485,36.324 C169.535485,40.0815 168.34314,43.9502727 165.959265,47.9304 C165.29341,49.0994182 164.52405,50.2544455 163.651185,51.3956455 C162.777505,52.5367636 161.52322,54.0119455 159.887515,55.8211091 C160.885075,57.5189182 162.022,59.2306364 163.297475,60.9562636 C164.4344,62.4592636 165.86228,63.9622636 167.581115,65.4652636 C169.07827,66.7177364 170.159775,67.8867545 170.824815,68.9722364 L170.824815,68.9722364 Z" id="Fill-8" fill="#FFFFFF"></path>
                <path d="M179.31141,32.1717273 C178.505375,33.1044545 177.7515,34.0936364 177.04897,35.1382909 C175.19077,37.9215818 173.714805,40.9067182 172.619445,44.0936182 C171.5249,47.2805182 170.97722,50.1403091 170.97722,52.6731545 C170.97722,55.9853182 172.016345,58.6363909 174.096225,60.6264545 C176.17529,62.6165182 178.94792,63.6115909 182.4133,63.6115909 C183.799615,63.6115909 185.3799,63.3402 187.154155,62.7974182 C188.92841,62.2547182 190.70348,61.5171273 192.477735,60.5847273 C194.25199,59.6523273 196.09552,58.4833091 198.008325,57.0777545 C199.04908,56.3131636 200.024635,55.5382636 200.93336,54.7529727 C200.733685,55.0607727 200.448435,55.4012182 200.07598,55.7743909 C198.606535,57.2495727 196.91541,58.6899 195.002605,60.0955364 C193.0898,61.5010909 191.24627,62.6700273 189.4712,63.6025091 C187.696945,64.5349091 185.92269,65.2724182 184.148435,65.8152 C182.37418,66.3579818 180.793895,66.6292909 179.40758,66.6292909 C175.9422,66.6292909 173.16957,65.6343 171.08969,63.6442364 C169.010625,61.6541727 167.970685,59.0030182 167.970685,55.6909364 C167.970685,53.1580909 168.518365,50.2982182 169.613725,47.1114 C170.709085,43.9245 172.18505,40.9393636 174.042435,38.1560727 C175.55915,35.9009182 177.315475,33.9062727 179.31141,32.1717273 L179.31141,32.1717273 Z M196.362025,47.8637182 C195.87221,48.4188545 195.349795,48.9682636 194.79478,49.5119455 C192.909685,51.4046455 191.05882,52.8797455 189.243,53.9374091 C188.878695,54.1495636 188.523355,54.3403636 188.177795,54.5098909 C186.735245,54.3220364 185.881125,53.5009909 185.615435,52.0469182 C186.25358,52.3530818 186.877055,52.5061636 187.48749,52.5061636 C188.84528,52.5061636 190.4329,51.9772909 192.24872,50.9197091 C193.600805,50.1323727 194.971635,49.1137364 196.362025,47.8637182 L196.362025,47.8637182 Z M190.25849,32.2690909 C191.398675,30.2015455 192.2911,29.1681818 192.93495,29.1681818 C193.573095,29.1681818 193.89176,29.9331818 193.89176,31.464 C193.89176,33.1060909 193.711645,34.8739364 193.3506,36.7665545 C192.99037,38.6591727 192.49159,40.3709727 191.853445,41.9017909 C191.049855,44.2397455 189.91293,46.3132636 188.443485,48.1224273 C187.87054,48.8660727 187.07021,49.6096364 186.044125,50.3531182 C187.22343,48.7364727 188.158235,46.9253455 188.847725,44.9194909 C189.485055,43.3886727 189.98465,41.6769545 190.34488,39.7843364 C190.70511,37.8916364 190.885225,36.1242818 190.885225,34.4821091 C190.885225,33.2427273 190.676585,32.5047273 190.25849,32.2690909 L190.25849,32.2690909 Z" id="Fill-9" fill="#2D6393"></path>
                <path d="M188.166385,48.5566364 C189.44186,47.6937818 190.412525,46.8310091 191.077565,45.9681545 C192.54701,44.1589909 193.683935,42.0854727 194.48834,39.7474364 C195.12567,38.2166182 195.62445,36.5049 195.985495,34.6122818 C196.345725,32.7199091 196.52584,30.9518182 196.52584,29.3097273 C196.52584,27.7789091 196.207175,27.0139091 195.56903,27.0139091 C194.68231,27.0139091 193.323705,28.9759091 191.49403,32.9007273 C190.412525,35.2663364 189.532325,37.6252364 188.852615,39.9771 C188.17372,42.3289636 187.833865,44.3538818 187.833865,46.0516909 C187.833865,46.6362 187.944705,47.4711545 188.166385,48.5566364 L188.166385,48.5566364 Z M188.249515,49.8926455 C188.55514,51.5626364 189.63583,52.3975909 191.49403,52.3975909 C193.573095,52.3975909 196.27645,51.1729364 199.60328,48.7236273 C201.543795,47.3041636 202.84698,46.5943909 203.51202,46.5943909 C204.344135,46.5943909 205.12083,46.8171 205.84129,47.2624364 C206.56175,47.7077727 206.922795,48.1670182 206.922795,48.6401727 C206.922795,49.1411455 206.520185,49.7952 205.716595,50.6023364 C204.24715,52.0775182 202.556025,53.5179273 200.64322,54.9234818 C198.7296,56.3290364 196.88607,57.4980545 195.111815,58.4304545 C193.33756,59.3628545 191.563305,60.1004455 189.788235,60.6431455 C188.01398,61.1859273 186.433695,61.4572364 185.04738,61.4572364 C181.582,61.4572364 178.80937,60.4622455 176.730305,58.4721818 C174.65124,56.4821182 173.6113,53.8310455 173.6113,50.5188818 C173.6113,47.9860364 174.15898,45.1262455 175.253525,41.9393455 C176.348885,38.7524455 177.825665,35.7673091 179.68305,32.9841818 C181.872955,29.7278182 184.562455,27.0139091 187.750735,24.8424545 C191.688,22.2267273 195.45819,20.9184545 199.062935,20.9184545 C201.66849,20.9184545 203.713325,21.7464545 205.196625,23.4024545 C206.679925,25.0584545 207.421575,27.3338182 207.421575,30.2285455 C207.421575,32.4826364 206.83233,34.8349091 205.65384,37.2842182 C204.476165,39.7335273 202.73614,42.0854727 200.43458,44.3398909 C198.549485,46.2325909 196.69862,47.7077727 194.8828,48.7653545 C193.06698,49.8230182 191.480175,50.3518909 190.12157,50.3518909 C189.511135,50.3518909 188.88766,50.1988091 188.249515,49.8926455 L188.249515,49.8926455 Z" id="Fill-10" fill="#FFFFFF"></path>
                <path d="M213.3018,42.5214818 C213.222745,42.7139182 213.144505,42.9178909 213.06708,43.1334 C212.60905,44.3997818 212.38085,45.4365818 212.38085,46.2437182 C212.38085,47.5518273 212.838065,48.6234818 213.75331,49.4584364 C214.66774,50.2933909 215.860085,50.7109091 217.32953,50.7109091 C219.103785,50.7109091 221.83485,50.0290364 225.52191,48.6652091 C226.08589,48.4488 226.59771,48.2199545 227.05737,47.9785909 C226.887035,48.3709909 226.676765,48.7429364 226.425745,49.0945091 C225.70447,50.0964545 224.401285,50.9593091 222.51619,51.6829909 C218.82913,53.0467364 216.098065,53.7286909 214.32381,53.7286909 C212.854365,53.7286909 211.66202,53.3111727 210.746775,52.4762182 C209.832345,51.6411818 209.374315,50.5696091 209.374315,49.2615 C209.374315,48.4542818 209.60333,47.4175636 210.060545,46.1511 C210.518575,44.8847182 210.996165,44.0149091 211.49576,43.5417545 C211.9326,43.1312727 212.534885,42.7911545 213.3018,42.5214818 L213.3018,42.5214818 Z" id="Fill-11" fill="#2D6393"></path>
                <path d="M219.96361,48.5566364 C218.494165,48.5566364 217.30182,48.1391182 216.38739,47.3041636 C215.472145,46.4691273 215.01493,45.3975545 215.01493,44.0894455 C215.01493,43.2823091 215.24313,42.2455091 215.70116,40.9790455 C216.158375,39.7126636 216.63678,38.8429364 217.13556,38.3697 C218.411035,37.1729455 221.08668,36.5745273 225.16168,36.5745273 C228.04515,36.5745273 230.111175,36.8388818 231.35894,37.3677545 C232.60589,37.8965455 233.23018,38.8011273 233.23018,40.0815 C233.23018,41.5566 232.84224,42.8369727 232.065545,43.9224545 C231.345085,44.9244 230.0419,45.7872545 228.15599,46.5109364 C224.46893,47.8747636 221.737865,48.5566364 219.96361,48.5566364 L219.96361,48.5566364 Z" id="Fill-12" fill="#FFFFFF"></path>
                <path d="M229.749315,57.5618727 C228.40049,59.1864545 227.726485,60.4648636 227.726485,61.3966909 C227.726485,62.8996909 229.182075,63.9295364 232.093255,64.4861455 C231.56595,65.3211818 230.76236,66.4623 229.680855,67.9096636 C226.631125,72.0567818 225.10626,74.5896273 225.10626,75.5081182 C225.10626,76.2595364 225.424925,76.8023182 226.06307,77.1363 C226.7004,77.4702818 227.76805,77.6372727 229.265205,77.6372727 C231.87076,77.6372727 234.04029,77.2893818 235.77298,76.5936 C236.456765,76.3190182 237.10958,75.9664636 237.73061,75.5356091 C237.60673,75.7038273 237.48448,75.8655818 237.363045,76.0208727 C236.03215,77.7186818 234.49995,78.9155182 232.76726,79.6113 C231.03457,80.3071636 228.86504,80.6550545 226.25867,80.6550545 C224.761515,80.6550545 223.69468,80.4880636 223.056535,80.1540818 C222.419205,79.8201 222.10054,79.2773182 222.10054,78.5258182 C222.10054,77.6073273 223.625405,75.0745636 226.675135,70.9274455 C227.755825,69.4800818 228.56023,68.3389636 229.08672,67.5039273 C226.17554,66.9473182 224.71995,65.9174727 224.71995,64.4144727 C224.71995,63.1898182 225.884585,61.3667455 228.213855,58.9452545 C228.74279,58.3874182 229.25461,57.9262091 229.749315,57.5618727 L229.749315,57.5618727 Z M243.59209,67.7866909 C243.953135,67.0935273 244.319885,66.3551182 244.69397,65.5717091 L245.10962,64.7366727 C250.37778,64.8480273 253.32971,64.9314818 253.967855,64.9872 C254.716025,65.0428364 255.60356,65.0706545 256.629645,65.0706545 C258.43161,65.0706545 260.954035,64.3887818 264.19855,63.0249545 C264.39252,63.5816455 264.5653,64.0965273 264.717705,64.5696818 C264.870925,65.0428364 265.00214,65.4325364 265.11298,65.7387 C266.166775,68.9951455 267.22057,71.5697182 268.27355,73.4623364 C269.161085,74.8539818 270.152125,75.8699182 271.247485,76.5100636 C272.34203,77.1502091 273.70797,77.4702818 275.343675,77.4702818 C276.67457,77.4702818 278.144015,77.1084818 279.75201,76.3848 C280.50344,76.0464818 281.33474,75.6076909 282.243465,75.0685909 C282.377125,75.3265636 282.512415,75.5883 282.650965,75.8538818 C280.32251,77.4960545 278.35347,78.6789 276.745475,79.4025818 C275.13748,80.1262636 273.668035,80.4880636 272.337955,80.4880636 C270.701435,80.4880636 269.33631,80.1679909 268.24095,79.5278455 C267.146405,78.8877 266.15455,77.8717636 265.26783,76.4801182 C264.214035,74.5875 263.161055,72.0129273 262.10726,68.7564 C261.99642,68.4502364 261.86439,68.0606182 261.711985,67.5874636 C261.55958,67.1143091 261.385985,66.5993455 261.192015,66.0427364 C257.948315,67.4065636 255.425075,68.0884364 253.62311,68.0884364 C252.59784,68.0884364 251.710305,68.0606182 250.962135,68.0049 C250.386745,67.9547455 247.930335,67.8819273 243.59209,67.7866909 L243.59209,67.7866909 Z M261.45363,53.7147818 L257.798355,53.7147818 L255.39818,42.5578909 L257.793465,37.4742 L257.96054,37.4742 L261.45363,53.7147818 Z M252.46907,23.3296364 L254.217245,26.4943636 C252.13818,30.1401818 250.481285,33.0553636 249.247375,35.2405636 C248.013465,37.4254364 246.911585,39.3737727 245.941735,41.0854909 C244.97107,42.7972909 244.18052,44.2167545 243.5709,45.3439636 C242.96128,46.4712545 241.547255,49.0806 239.328825,53.172 C238.834935,53.1778091 238.3712,53.1898364 237.93925,53.2082455 C239.244065,50.8011545 240.119375,49.1855727 240.56518,48.3617455 C241.1748,47.2345364 241.96535,45.8149909 242.9352,44.1032727 C243.905865,42.3915545 245.007745,40.4432182 246.241655,38.2583455 C247.475565,36.0734727 249.131645,33.1576364 251.211525,29.5118182 L248.67443,24.9193636 C249.31176,24.4186364 249.90834,24.0700909 250.46254,23.8753636 C251.092535,23.6618182 251.76165,23.4801818 252.46907,23.3296364 L252.46907,23.3296364 Z M256.65002,8.62527273 C256.192805,9.549 255.96379,10.5790909 255.96379,11.7147273 C255.96379,13.6906364 256.70544,15.2427273 258.18874,16.3693636 C259.67204,17.4968182 261.70302,18.0605455 264.28168,18.0605455 C266.482995,18.0605455 268.430845,17.5099091 270.1236,16.4086364 C269.66394,17.1621818 269.0641,17.8625455 268.32408,18.5105455 C267.37216,19.3450909 266.3257,19.9759091 265.185515,20.403 C264.02414,19.9824545 262.69732,19.7721818 261.20424,19.7721818 C259.459325,19.7721818 257.861925,19.8932727 256.412855,20.1346364 C255.967865,19.9219091 255.55792,19.6723636 255.18302,19.3876364 C253.69972,18.2601818 252.95807,16.7089091 252.95807,14.7321818 C252.95807,12.8675455 253.575025,11.2884545 254.808935,9.99409091 C255.353355,9.42218182 255.96705,8.96563636 256.65002,8.62527273 L256.65002,8.62527273 Z M262.17409,10.4260909 C262.054285,9.78954545 261.993975,9.16118182 261.993975,8.54181818 C261.993975,7.76209091 262.756815,7.37263636 264.28168,7.37263636 C265.889675,7.37263636 267.157815,7.686 268.086915,8.31190909 C269.0152,8.93863636 269.47975,9.82227273 269.47975,10.9628182 C269.47975,11.7703636 269.161085,12.4936364 268.52294,13.1342727 C267.89376,13.7667273 267.20916,14.0866364 266.471585,14.094 C266.473215,14.0563636 266.47403,14.0187273 266.47403,13.9810909 C266.47403,12.8397273 266.00948,11.9560909 265.08038,11.3301818 C264.33221,10.8253636 263.36399,10.5242727 262.17409,10.4260909 L262.17409,10.4260909 Z" id="Fill-13" fill="#2D6393"></path>
                <path d="M260.42836,35.3199273 L252.77551,51.5605091 L264.08771,51.5605091 L260.59462,35.3199273 L260.42836,35.3199273 Z M256.851325,24.3400909 L254.315045,19.7476364 C254.952375,19.2460909 255.54814,18.8983636 256.103155,18.7036364 C258.23764,17.9795455 260.8163,17.6179091 263.83832,17.6179091 C266.88805,17.6179091 269.244215,18.495 270.90763,20.2483636 C272.349365,21.7791818 273.527855,23.922 274.4431,26.6776364 C275.35753,29.4332727 276.2035,33.3572727 276.97938,38.4511091 C277.395845,41.0395909 277.756075,42.9879273 278.060885,44.2960364 C279.03155,47.9421818 279.676215,50.2731818 279.99488,51.2891182 C280.313545,52.3050545 280.888935,53.9262818 281.72105,56.1529636 C281.99815,56.7931091 282.3649,57.6907364 282.82293,58.8458455 C283.280145,60.0008727 283.716985,61.0794 284.132635,62.0814273 C285.04788,64.2523909 286.434195,67.1192182 288.29158,70.6818273 C285.96231,72.324 283.994085,73.5068455 282.38609,74.2305273 C280.778095,74.9542091 279.30865,75.3160091 277.977755,75.3160091 C276.34205,75.3160091 274.976925,74.9959364 273.881565,74.3557909 C272.786205,73.7156455 271.795165,72.6997091 270.90763,71.3080636 C269.85465,69.4154455 268.800855,66.8408727 267.74706,63.5844273 C267.63622,63.2782636 267.505005,62.8885636 267.3526,62.4154091 C267.19938,61.9422545 267.0266,61.4272909 266.83263,60.8706818 C263.58893,62.2345091 261.06569,62.9163818 259.263725,62.9163818 C258.23764,62.9163818 257.35092,62.8885636 256.601935,62.8329273 C255.964605,62.7772091 253.01186,62.6937545 247.7437,62.5824 L247.32805,63.4173545 C245.775475,66.6738818 244.33374,69.1510091 243.002845,70.8488182 C241.67195,72.5466273 240.140565,73.7434636 238.407875,74.4393273 C236.67437,75.1351091 234.50484,75.483 231.899285,75.483 C230.40213,75.483 229.33448,75.3160091 228.69715,74.9820273 C228.059005,74.6480455 227.74034,74.1052636 227.74034,73.3537636 C227.74034,72.4352727 229.265205,69.9025091 232.314935,65.7553909 C233.39644,64.3080273 234.20003,63.1669091 234.727335,62.3318727 C231.816155,61.7752636 230.360565,60.7454182 230.360565,59.2424182 C230.360565,58.0177636 231.5252,56.1946909 233.853655,53.7732 C234.96287,52.6042636 235.995475,51.8597182 236.952285,51.5396455 C237.90828,51.2195727 239.57903,51.0456273 241.962905,51.0177273 C244.181335,46.9263273 245.59536,44.3169 246.20498,43.1896909 C246.815415,42.0624818 247.60515,40.6429364 248.575815,38.9312182 C249.545665,37.2195 250.64836,35.2711636 251.881455,33.0864545 C253.115365,30.9010909 254.77226,27.9859091 256.851325,24.3400909 L256.851325,24.3400909 Z M265.21078,2.71309091 C267.012745,0.904090909 268.745435,0 270.40885,0 C271.601195,0 272.68922,0.312545455 273.67374,0.939272727 C274.657445,1.56518182 275.44066,2.44227273 276.023385,3.56890909 C276.605295,4.69636364 276.89625,5.87209091 276.89625,7.09690909 C276.89625,9.54654545 275.919065,11.6271818 273.964695,13.3388182 C272.010325,15.0504545 269.66068,15.9062727 266.91576,15.9062727 C264.3371,15.9062727 262.30612,15.3425455 260.82282,14.2150909 C259.33952,13.0884545 258.59787,11.5363636 258.59787,9.56045455 C258.59787,7.69581818 259.214825,6.11590909 260.448735,4.82154545 C261.682645,3.52718182 263.26945,2.82518182 265.21078,2.71309091 L265.21078,2.71309091 Z M269.077955,11.9397273 C269.82694,11.9397273 270.51969,11.6198182 271.157835,10.98 C271.795165,10.3393636 272.11383,9.61609091 272.11383,8.80854545 C272.11383,7.668 271.64928,6.78436364 270.720995,6.15763636 C269.791895,5.53172727 268.523755,5.21836364 266.91576,5.21836364 C265.390895,5.21836364 264.628055,5.60781818 264.628055,6.38754545 C264.628055,7.50109091 264.822025,8.64163636 265.21078,9.81081818 C265.34933,10.2002727 265.667995,10.521 266.166775,10.7713636 C267.33141,11.5502727 268.302075,11.9397273 269.077955,11.9397273 L269.077955,11.9397273 Z" id="Fill-14" fill="#FFFFFF"></path>
                <path d="M290.065835,55.3243909 C288.99574,56.8031727 288.4611,58.2628091 288.4611,59.7032182 C288.4611,61.8185455 289.3413,63.4885364 291.1017,64.7131909 C292.8621,65.9378455 295.28102,66.5501727 298.35846,66.5501727 C301.547555,66.5501727 304.45792,66.0631091 307.092,65.0889818 C309.72608,64.1147727 312.374015,62.5005 315.03499,60.246 C315.301495,60.0231273 315.560665,59.8009909 315.8125,59.5795091 C314.784785,60.7851 313.52398,62.0131909 312.02927,63.2637818 C309.36748,65.5182 306.72036,67.1325545 304.08628,68.1066818 C301.4522,69.0808909 298.54102,69.5679545 295.35274,69.5679545 C292.2753,69.5679545 289.85638,68.9556273 288.09598,67.7309727 C286.33558,66.5063182 285.45538,64.8363273 285.45538,62.721 C285.45538,61.218 286.03729,59.6941364 287.201925,58.1494091 C288.016925,57.0678545 288.97129,56.1262091 290.065835,55.3243909 L290.065835,55.3243909 Z M294.43342,27.8680909 C293.98191,28.3999091 293.550775,28.9497273 293.140015,29.5183636 C290.8246,32.7190909 289.6673,35.9199 289.6673,39.1207091 C289.6673,40.9019727 290.290775,42.4327909 291.53854,43.7131636 C292.869435,45.2996182 295.73905,46.7330727 300.147385,48.0133636 C303.141695,48.8483182 305.068355,49.6972636 305.927365,50.5601182 C306.73177,51.2837182 307.133565,52.2579273 307.133565,53.4825818 C307.133565,55.2638455 306.46119,56.9129727 305.11644,58.4298818 C304.47911,59.1494727 303.808365,59.7078 303.10502,60.1047 C303.787175,58.9703727 304.127845,57.7688727 304.127845,56.5002818 C304.127845,55.2756273 303.72605,54.3015 302.921645,53.5778182 C302.49703,53.1517091 301.81243,52.7289545 300.86703,52.3096364 C300.903705,52.2415636 300.941195,52.1732455 300.978685,52.1048455 C301.338915,51.4646182 301.519845,51.0053727 301.519845,50.7271091 C301.519845,50.1704182 300.895555,49.8920727 299.64779,49.8920727 C298.434255,49.8920727 297.201975,50.1513545 295.951765,50.6700818 C292.212545,49.4829818 289.739835,48.1698818 288.53282,46.7308636 C287.285055,45.4505727 286.660765,43.9197545 286.660765,42.1384091 C286.660765,38.9376 287.81888,35.7368727 290.13348,32.5358182 C291.379615,30.8127273 292.8132,29.2565455 294.43342,27.8680909 L294.43342,27.8680909 Z M306.665755,27.3673636 C306.93878,26.9697273 307.23381,26.5876364 307.55003,26.2202727 C307.96568,25.6630909 308.8524,24.912 310.211005,23.9653636 C311.2648,25.524 311.79129,27.18 311.79129,28.9341818 C311.79129,30.7153636 311.48648,32.8025455 310.87686,35.1962182 C310.65518,35.9477182 310.543525,36.5183182 310.543525,36.9079364 C310.543525,37.2976364 310.82796,37.6594364 311.39683,37.9934182 C311.964885,38.3274818 312.63726,38.4944727 313.41314,38.4944727 C314.74648,38.4944727 316.15317,37.9516091 317.63321,36.8660455 C316.79865,38.0059364 315.824725,38.9910273 314.711435,39.8213182 C314.289265,40.1364818 313.8728,40.4075455 313.46204,40.6345909 C312.93392,40.4924727 312.377275,40.3497 311.79129,40.2061909 C310.046375,39.7911273 308.66658,39.4047818 307.653535,39.0469909 C307.707325,38.7997364 307.77986,38.5220455 307.870325,38.214 C308.48076,35.8203273 308.78557,33.7328182 308.78557,31.9516364 C308.78557,30.1982727 308.25908,28.5422727 307.205285,26.9836364 C307.016205,27.1153636 306.83609,27.243 306.665755,27.3673636 L306.665755,27.3673636 Z" id="Fill-15" fill="#2D6393"></path>
                <path d="M303.280245,58.6762364 C304.91595,58.5927 306.406585,57.7925182 307.751335,56.2756091 C309.09527,54.7587 309.767645,53.1095727 309.767645,51.3283091 C309.767645,50.1036545 309.36585,49.1294455 308.56226,48.4057636 C307.702435,47.5429909 305.775775,46.6940455 302.781465,45.8590909 C298.37313,44.5787182 295.503515,43.1453455 294.17262,41.5588909 C292.924855,40.2785182 292.30138,38.7477 292.30138,36.9664364 C292.30138,33.7655455 293.45868,30.5648182 295.774095,27.3640909 C298.088695,24.1633636 301.048775,21.5402727 304.652705,19.494 C308.256635,17.4485455 311.88909,16.4258182 315.54844,16.4258182 C317.322695,16.4258182 318.98611,16.8430909 320.538685,17.6784545 C322.09126,18.513 323.32517,19.6191818 324.240415,20.997 C325.154845,22.3748182 325.612875,23.8712727 325.612875,25.4855455 C325.612875,27.072 325.11328,28.7140909 324.11572,30.4118182 C323.117345,32.1095455 321.86306,33.5217273 320.35205,34.6492636 C318.84104,35.7765545 317.405825,36.3402 316.048035,36.3402 C315.27134,36.3402 314.598965,36.1731273 314.03091,35.8391455 C313.46204,35.5051636 313.17842,35.1433636 313.17842,34.7536636 C313.17842,34.3636364 313.28926,33.7933636 313.51094,33.0422727 C314.12056,30.6482727 314.42537,28.5610909 314.42537,26.7790909 C314.42537,25.0257273 313.89888,23.3697273 312.845085,21.8110909 C311.487295,22.7577273 310.59976,23.5088182 310.18411,24.066 C309.130315,25.2908182 308.312055,26.6817273 307.730145,28.2403636 C307.092815,29.8268182 306.773335,31.3298182 306.773335,32.7493636 C306.773335,33.7516364 307.00235,34.5519 307.459565,35.1503182 C307.917595,35.7487364 308.665765,36.2566636 309.705705,36.6741818 C310.745645,37.0916182 312.318595,37.5508636 314.42537,38.0519182 C317.946985,38.9146909 320.427845,39.7497273 321.86958,40.5568636 C322.202915,40.7516727 322.71555,41.1552818 323.4083,41.7676091 C324.462095,42.9087273 324.988585,44.3839091 324.988585,46.1930727 C324.988585,48.1135909 324.39282,50.0548909 323.200475,52.0171364 C322.00813,53.9793818 320.1646,56.0042182 317.669885,58.0917273 C315.008095,60.3462273 312.36016,61.9605 309.72608,62.9347091 C307.092815,63.9088364 304.181635,64.3959 300.993355,64.3959 C297.915915,64.3959 295.496995,63.7835727 293.73578,62.5589182 C291.97538,61.3342636 291.09518,59.6642727 291.09518,57.5489455 C291.09518,56.0459455 291.677905,54.5220818 292.841725,52.9773545 C294.00636,51.4326273 295.454615,50.1732 297.18812,49.1990727 C298.92081,48.2248636 300.618455,47.7378 302.28187,47.7378 C303.529635,47.7378 304.153925,48.0161455 304.153925,48.5728364 C304.153925,48.8511 303.97381,49.3103455 303.612765,49.9505727 C302.532075,51.8988273 301.990915,53.6940818 301.990915,55.3362545 C301.990915,56.5051909 302.421235,57.6185727 303.280245,58.6762364 L303.280245,58.6762364 Z" id="Fill-16" fill="#FFFFFF"></path>
                <path d="M42.644712,104.740036 C44.4558865,95.7499364 45.5714585,89.4911727 45.991428,85.9638273 L45.991428,85.7576455 C46.0570355,85.4484545 46.2309565,85.2051273 46.5131095,85.0275818 C46.7952625,84.8500364 47.077497,84.7613455 47.35965,84.7613455 C47.641803,84.7613455 47.8550885,84.8070818 47.9995065,84.8987182 C48.3144225,85.0934455 48.471962,85.3453636 48.471962,85.6546364 C48.471962,88.4375182 48.5572925,92.6062364 48.727872,98.1606273 C48.898533,103.7151 48.983782,107.883736 48.983782,110.6667 C48.983782,111.365264 48.7147505,111.915 48.1766875,112.315827 C47.887933,112.487645 47.710752,112.521927 47.6451445,112.418918 C47.107,112.544836 46.805124,112.447555 46.7395165,112.126827 C46.7132735,111.989455 46.700152,111.817636 46.700152,111.611536 C46.700152,111.611536 46.706672,111.422536 46.719875,111.044618 C46.6673075,109.258036 46.6410645,107.860827 46.6410645,106.852991 C46.6410645,105.845236 46.650926,104.453755 46.670649,102.678627 C46.6902905,100.9035 46.6870305,97.5365182 46.6607875,92.5776 C46.5163695,93.3105273 46.2112335,94.6934182 45.7453795,96.7261909 C45.279444,98.7590455 44.9611865,100.236355 44.7905255,101.158282 C44.619946,102.080209 44.4821295,102.850364 44.3771575,103.468827 C44.272104,104.087291 44.170392,104.639809 44.07194,105.126545 C43.9735695,105.613282 43.8521345,106.108609 43.707798,106.612527 C43.405922,107.677555 42.972831,108.210109 42.4084435,108.210109 C41.5685045,108.210109 41.148535,107.116445 41.148535,104.929036 C40.9909955,103.806655 40.5579045,101.559109 39.8491805,98.1864 C39.1404565,94.8136909 38.668001,92.4974182 38.4317325,91.2376636 C38.4054895,93.4136182 38.392368,95.0455636 38.392368,96.1335818 L38.7270885,110.769709 C38.7270885,111.273627 38.523583,111.714545 38.116735,112.092464 C37.447457,112.092464 36.994643,111.897818 36.7583745,111.508445 C36.522106,111.119073 36.4040125,110.592245 36.4040125,109.927964 L36.541829,104.052927 L36.4040125,90.4302818 C36.4040125,88.9070727 36.4237355,87.3896727 36.4631,85.8779182 L37.585192,85.3281818 C38.3332805,85.3969091 39.1666995,87.4583182 40.085449,91.5124909 C40.820416,94.7191909 41.4208265,97.6738909 41.886762,100.376673 C42.3526975,103.079455 42.6053475,104.533936 42.644712,104.740036 L42.644712,104.740036 Z" id="Fill-17" fill="#FFFFFF"></path>
                <path d="M54.8701195,94.2782727 L54.929207,96.3396818 L54.909484,99.7067455 C54.909484,99.9930273 54.9160855,100.330855 54.929207,100.720227 C54.9423285,101.1096 54.95871,101.622109 54.9783515,102.257755 C54.9980745,102.893318 55.037439,103.523236 55.0965265,104.147427 C55.1555325,104.771536 55.2244815,105.430091 55.3032105,106.122927 C55.3819395,106.815764 55.486993,107.457136 55.618208,108.046964 C55.749423,108.636709 55.893841,109.172127 56.051299,109.653136 C56.405661,110.695336 56.8715965,111.216355 57.4491055,111.216355 C58.223437,111.216355 58.813986,110.580791 59.220834,109.309582 C59.824586,107.419909 60.126462,105.095045 60.126462,102.335073 L60.1855495,98.7103636 C60.1855495,96.1679455 60.057513,94.4558182 59.801603,93.5739818 C59.545693,92.6921455 59.3061645,92.0278636 59.083099,91.5812182 C58.636805,90.6764727 57.9609255,90.2241 57.0552975,90.2241 L56.9765685,90.2241 C55.572242,90.2241 54.8701195,91.5754909 54.8701195,94.2782727 L54.8701195,94.2782727 Z M62.351086,102.558355 C62.351086,109.303855 60.7695785,112.676564 57.6065635,112.676564 C54.6929385,112.676564 53.058945,109.481318 52.704583,103.090909 C52.67834,102.4839 52.6652185,101.876973 52.6652185,101.269964 L52.6454955,99.1226455 L52.6454955,98.4355364 C52.6454955,93.4766182 53.4789145,90.4131 55.1457525,89.2449 C55.5526005,88.9586182 56.0054145,88.8039818 56.504113,88.7810727 C56.884718,88.8956182 57.3506535,89.0015727 57.901838,89.0989364 C58.453104,89.1963 58.859952,89.2964455 59.1224635,89.3995364 C59.6080405,89.5942636 60.132982,90.1009636 60.6973695,90.9198818 C61.261757,91.7387182 61.678385,92.8323818 61.947498,94.2009545 C62.2165295,95.5695273 62.351086,96.9409636 62.351086,98.3152636 L62.351086,102.558355 Z" id="Fill-18" fill="#FFFFFF"></path>
                <path d="M69.7926065,108.759845 L69.8713355,107.557364 C69.7663635,107.259545 69.549818,104.611173 69.221699,99.6122455 C68.89358,94.6132364 68.716399,91.5640364 68.690156,90.4646455 C67.141493,90.4302818 66.183379,90.3071455 65.8158955,90.0952364 C65.448412,89.8834091 65.264711,89.6629091 65.264711,89.4339 C65.264711,89.2048091 65.4090475,89.0187545 65.697802,88.8755727 C65.9865565,88.7324727 66.2687095,88.6608818 66.5443425,88.6608818 L72.0172305,88.9872545 L72.666867,88.9700727 C73.506806,88.9700727 73.9267755,89.2506273 73.9267755,89.8118182 C73.9267755,90.0981 73.788959,90.3300545 73.5134075,90.5076 C73.2377745,90.6850636 72.9293785,90.7738364 72.588138,90.7738364 L70.737599,90.5332909 L70.6587885,90.8941091 C70.6587885,93.1158818 70.8819355,96.4427727 71.328148,100.874864 C71.7743605,105.306955 71.9975075,108.639573 71.9975075,110.8728 C71.9975075,111.159164 71.8760725,111.405355 71.633284,111.611536 C71.3904955,111.817636 71.1050825,111.920727 70.7769635,111.920727 L69.8713355,111.920727 L69.7926065,108.759845 Z" id="Fill-19" fill="#FFFFFF"></path>
                <path d="M82.195195,111.628718 L80.679295,111.645818 L78.927208,111.714545 C78.1791195,111.714545 77.680421,111.502718 77.431031,111.078982 C77.431031,110.735427 77.480257,110.469109 77.578709,110.280191 C77.6770795,110.091191 77.883845,109.996691 78.1988425,109.996691 L79.3406575,109.996691 L79.4193865,109.532864 L79.1437535,102.060164 L79.360299,94.2267273 C79.360299,92.9097 79.2946915,91.6614 79.1634765,90.4818273 L77.5983505,90.4818273 C77.1192935,90.4818273 76.768273,90.4159636 76.545126,90.2842364 C76.321979,90.1525091 76.210487,89.9034545 76.210487,89.5369909 C76.210487,88.9872545 76.9388525,88.7181545 78.395665,88.7296091 L78.5334815,88.7296091 C81.984925,88.7296091 83.711095,89.1304364 83.711095,89.9320909 C83.711095,90.0580909 83.63204,90.2756455 83.474745,90.5848364 L81.407742,90.5848364 C81.51304,91.4437636 81.5652,92.4516 81.5652,93.6082636 L81.3486545,100.325127 L81.644255,107.797827 L81.644255,108.845755 C81.644255,109.051855 81.5978,109.366855 81.50652,109.790591 L83.218835,109.790591 C84.32153,109.790591 84.87247,110.0826 84.87247,110.6667 C84.87247,110.930073 84.777115,111.153436 84.58722,111.336627 C84.39651,111.5199 84.183795,111.611536 83.947445,111.611536 L82.195195,111.628718 Z" id="Fill-20" fill="#FFFFFF"></path>
                <path d="M89.755135,94.2782727 L89.813815,96.3396818 L89.794255,99.7067455 C89.794255,99.9930273 89.800775,100.330855 89.813815,100.720227 C89.826855,101.1096 89.843155,101.622109 89.86353,102.257755 C89.88309,102.893318 89.92221,103.523236 89.98089,104.147427 C90.040385,104.771536 90.108845,105.430091 90.1879,106.122927 C90.266955,106.815764 90.37209,107.457136 90.503305,108.046964 C90.63452,108.636709 90.778775,109.172127 90.93607,109.653136 C91.290595,110.695336 91.75596,111.216355 92.333795,111.216355 C93.108045,111.216355 93.69892,110.580791 94.105605,109.309582 C94.70952,107.419909 95.01107,105.095045 95.01107,102.335073 L95.070565,98.7103636 C95.070565,96.1679455 94.94261,94.4558182 94.6867,93.5739818 C94.43079,92.6921455 94.19118,92.0278636 93.96787,91.5812182 C93.52125,90.6764727 92.845615,90.2241 91.94015,90.2241 L91.861095,90.2241 C90.45685,90.2241 89.755135,91.5754909 89.755135,94.2782727 L89.755135,94.2782727 Z M97.23602,102.558355 C97.23602,109.303855 95.654105,112.676564 92.49109,112.676564 C89.577465,112.676564 87.94339,109.481318 87.58968,103.090909 C87.562785,102.4839 87.549745,101.876973 87.549745,101.269964 L87.530185,99.1226455 L87.530185,98.4355364 C87.530185,93.4766182 88.36393,90.4131 90.030605,89.2449 C90.43729,88.9586182 90.89043,88.8039818 91.38921,88.7810727 C91.769815,88.8956182 92.23518,89.0015727 92.786935,89.0989364 C93.337875,89.1963 93.74456,89.2964455 94.00699,89.3995364 C94.49273,89.5942636 95.01759,90.1009636 95.582385,90.9198818 C96.146365,91.7387182 96.56283,92.8323818 96.832595,94.2009545 C97.101545,95.5695273 97.23602,96.9409636 97.23602,98.3152636 L97.23602,102.558355 Z" id="Fill-21" fill="#FFFFFF"></path>
                <path d="M103.33874,98.1434455 L103.57509,107.248091 L103.57509,111.233536 C103.57509,111.542809 103.482995,111.803318 103.29962,112.015227 C103.11543,112.227055 102.85952,112.333009 102.53189,112.333009 C101.652505,112.333009 101.212405,111.617264 101.212405,110.185691 L101.134165,97.7827091 L101.3697,91.2204818 C101.3697,89.6400818 101.86196,88.8498 102.84648,88.8498 C103.437355,88.8498 103.8636,89.2449 104.12603,90.0351818 C104.493595,91.5468545 105.13337,93.7199455 106.045355,96.5544545 C106.958155,99.3888818 107.584075,101.544791 107.92556,103.022182 C108.17495,103.743655 108.496875,104.811627 108.89052,106.226018 C109.284165,107.640409 109.592235,108.702573 109.815545,109.412673 C109.92068,104.327755 109.97284,98.1663545 109.97284,90.9284727 L109.91416,89.9836364 C109.91416,89.6629091 109.98262,89.4081273 110.120355,89.2191273 C110.258905,89.0302091 110.49118,88.9357091 110.819625,88.9357091 C111.14807,88.9357091 111.41702,89.0044364 111.626475,89.1418909 C112.047015,89.4167182 112.25647,89.8060909 112.25647,90.3100091 C112.25647,93.5281636 112.15215,97.6624364 111.94188,102.712991 C111.73161,107.763464 111.41702,110.918618 110.99648,112.178373 C110.94432,112.189827 110.832665,112.221327 110.66233,112.272873 C110.49118,112.324418 110.366485,112.355918 110.288245,112.367373 C109.540075,112.5162 109.067375,112.487645 108.87096,112.281464 C108.67373,112.075282 108.532735,111.800455 108.44716,111.4569 C108.3624,111.113345 108.263785,110.7783 108.15213,110.451927 C108.040475,110.125555 107.62401,108.565118 106.90192,105.770782 C104.972815,98.3839909 103.784545,94.0892727 103.33874,92.8867909 L103.33874,98.1434455 Z" id="Fill-22" fill="#FFFFFF"></path>
                <path d="M115.80009,110.546427 L117.926425,110.804073 C118.438245,110.804073 118.884865,110.609427 119.26547,110.220055 C119.646075,109.830682 119.928065,109.343945 120.11144,108.759845 C120.465965,107.637545 120.643635,106.644027 120.643635,105.779373 C120.643635,104.914718 120.479005,104.058655 120.151375,103.211182 C119.82293,102.363709 119.422765,101.576291 118.950065,100.849091 C118.477365,100.121891 117.99896,99.3802909 117.51322,98.6244545 C116.384445,96.8493273 115.81965,95.0971091 115.81965,93.3678 C115.81965,92.3141455 116.0234,91.3808455 116.430085,90.5676545 C117.191295,89.0559818 118.201895,88.3001455 119.461885,88.3001455 C119.934585,88.3001455 120.38365,88.4317909 120.81071,88.6952455 C121.236955,88.9586182 121.450485,89.2449 121.450485,89.5541727 C121.450485,90.0923727 121.12204,90.3615545 120.465965,90.3615545 C120.177455,90.3615545 119.895465,90.2928273 119.61918,90.1553727 C118.76669,90.1897364 118.188855,91.0200273 117.887305,92.6463273 C117.82129,93.0013364 117.78869,93.4164818 117.78869,93.8917636 C117.78869,94.3670455 117.906865,94.9539273 118.143215,95.6525727 C118.379565,96.3511364 118.677855,96.9724636 119.0389,97.5164727 C119.399945,98.0604 119.78707,98.6616818 120.200275,99.3201545 C120.61348,99.9787091 121.003865,100.617218 121.37143,101.2356 C122.198655,102.667173 122.61186,104.304845 122.61186,106.1487 C122.61186,107.614636 122.276895,108.971755 121.60778,110.220055 C121.253255,110.861345 120.751215,111.385309 120.10166,111.791864 C119.452105,112.198418 118.700675,112.407464 117.84737,112.418918 L117.84737,112.504827 C117.349405,112.447555 116.896265,112.301509 116.48958,112.066773 C116.082895,111.831955 115.853065,111.525627 115.80009,111.147709 L115.80009,110.546427 Z" id="Fill-23" fill="#FFFFFF"></path>
                <path d="M132.77002,110.357427 C133.584205,110.357427 133.99089,110.615155 133.99089,111.130527 C133.99089,112.058182 133.24272,112.521927 131.74638,112.521927 C131.129425,112.521927 130.49617,112.444691 129.846615,112.290055 C129.19706,112.135418 128.70806,111.966545 128.38043,111.783273 C126.59558,110.775436 125.70234,108.021191 125.70234,103.520373 L125.68278,101.458964 C125.68278,94.7134636 126.62818,90.7337455 128.518165,89.5198091 C129.48883,88.9013455 130.840915,88.5921545 132.573605,88.5921545 C132.862115,88.5921545 133.127805,88.6837909 133.370675,88.8669818 C133.613545,89.0502545 133.73498,89.2620818 133.73498,89.5026273 L133.73498,89.6400818 C133.48559,90.1782818 132.836035,90.4474636 131.786315,90.4474636 L131.057705,90.4131 C130.611085,90.4131 130.21418,90.6249273 129.866175,91.0486636 C129.518985,91.4724 129.253295,91.9820455 129.069105,92.5776 C128.88573,93.1730727 128.73414,93.8373545 128.615965,94.5702818 C128.43259,95.7270273 128.340495,96.8092364 128.340495,97.8170727 L128.340495,97.9888909 L128.084585,104.7744 C128.084585,106.205973 128.17342,107.196627 128.350275,107.746282 C128.527945,108.296018 128.71132,108.7398 128.90203,109.077627 C129.091925,109.415536 129.318495,109.693227 129.580925,109.910782 C130.18484,110.4147 130.95909,110.6667 131.903675,110.6667 C132.21908,110.6667 132.50759,110.563609 132.77002,110.357427 L132.77002,110.357427 Z" id="Fill-24" fill="#FFFFFF"></path>
                <path d="M142.81082,110.151327 C142.81082,111.296536 142.63315,112.012364 142.278625,112.298645 C142.09525,112.4361 141.81,112.504827 141.422875,112.504827 C141.03575,112.504827 140.710565,112.2471 140.448135,111.731727 C140.749685,111.216355 140.90046,109.2294 140.90046,105.770782 C140.90046,105.117955 140.8483,104.198891 140.743165,103.013591 C140.63803,101.828291 140.57935,101.0295 140.56631,100.617218 C140.04145,99.8269364 139.230525,98.0088545 138.135165,95.1629727 C137.03899,92.3170091 136.49131,90.5619273 136.49131,89.8977273 L136.49131,89.7087273 L137.396775,89.1247091 C138.223185,89.1476182 139.207705,90.9627545 140.34952,94.5702818 C140.8483,96.1507636 141.09769,96.9466909 141.09769,96.9581455 C141.202825,96.7061455 141.413095,95.8300364 141.727685,94.3298182 C142.528015,90.5275636 143.36828,88.6265182 144.247665,88.6265182 C144.497055,88.6265182 144.723625,88.6952455 144.92656,88.8326182 C145.13031,88.9700727 145.232185,89.1476182 145.232185,89.3651727 C145.232185,90.8082 144.827945,92.4945545 144.021095,94.4243182 C143.214245,96.354 142.81082,98.0632636 142.81082,99.5521091 L142.81082,110.151327 Z" id="Fill-25" fill="#FFFFFF"></path>
                <path d="M151.68943,89.8977273 L151.354465,96.3053182 L151.354465,98.1434455 C151.43352,98.0174455 151.924965,97.0898727 152.831245,95.3604818 C155.101835,91.0773 156.51912,88.9357091 157.0831,88.9357091 C157.476745,88.9357091 157.83453,89.0158909 158.156455,89.1762545 C158.477565,89.3365364 158.63812,89.5713545 158.63812,89.8805455 C158.63812,89.9034545 157.955965,90.8969727 156.59084,92.8610182 C155.22653,94.8251455 154.46532,95.9503091 154.30721,96.2366727 L154.22897,98.3324455 C154.22897,99.3402 154.691075,101.224145 155.616915,103.9842 C156.54194,106.744255 157.31293,108.570845 157.929885,109.464136 C158.00894,109.567227 158.182535,109.779136 158.451485,110.099782 C158.720435,110.420427 158.917665,110.701064 159.04236,110.941527 C159.167055,111.182073 159.228995,111.433991 159.228995,111.697364 C159.228995,111.960818 159.11408,112.181236 158.88425,112.358782 C158.655235,112.536245 158.389545,112.625018 158.08718,112.625018 C157.457185,112.625018 156.80111,112.043864 156.118955,110.881391 C155.435985,109.719 154.82555,108.296018 154.28765,106.612527 C153.382185,103.737927 152.71959,101.2356 152.29905,99.1054636 C151.853245,99.5062909 151.5085,100.041709 151.26563,100.711636 C151.02276,101.381645 150.901325,101.842609 150.901325,102.094527 L150.901325,111.731727 C150.901325,112.281464 150.606295,112.556291 150.01542,112.556291 C149.608735,112.556291 149.284365,112.456145 149.041495,112.255691 C148.798625,112.055318 148.67719,111.783273 148.67719,111.439718 L148.67719,100.754591 C148.67719,99.4833818 148.805145,97.5851182 149.061055,95.0598818 C149.316965,92.5346455 149.44492,90.6421091 149.44492,89.3823545 C149.68127,88.9357091 150.02194,88.7124273 150.46856,88.7124273 C151.28193,88.7124273 151.68943,89.1075273 151.68943,89.8977273 L151.68943,89.8977273 Z" id="Fill-26" fill="#FFFFFF"></path>
                <path d="M166.15894,110.701064 L167.75308,110.615155 C168.777535,110.615155 169.289355,110.901436 169.289355,111.474082 C169.289355,111.829091 169.111685,112.086736 168.75716,112.2471 C168.40345,112.407464 168.00247,112.487645 167.556665,112.487645 L163.757135,112.487645 C163.41565,112.487645 163.12388,112.384555 162.88101,112.178373 C162.63814,111.972273 162.506925,111.708818 162.487365,111.388173 C162.467805,111.067527 162.493885,110.6667 162.56642,110.185691 C162.63814,109.704682 162.674,109.321036 162.674,109.034673 L162.477585,104.533936 L162.753055,94.2610909 L162.536265,91.2892091 C162.536265,89.6286273 163.10106,88.7982545 164.229835,88.7982545 C164.544425,88.7982545 164.839455,88.8841636 165.11574,89.0559818 C165.22006,89.0674364 165.47271,89.0874818 165.87369,89.1161182 C166.273855,89.1447545 166.62512,89.1819818 166.92667,89.2277182 C167.22822,89.2735364 167.556665,89.3365364 167.91119,89.4167182 C168.6724,89.5999909 169.053005,89.9149091 169.053005,90.3615545 C169.053005,90.8425636 168.65936,91.2090273 167.871255,91.4609455 C166.63816,91.0944818 165.62104,90.8712 164.819895,90.7910182 C164.85983,91.2949364 164.87939,91.7988545 164.87939,92.3026909 L164.70172,97.3532455 C164.70172,97.3761545 164.741655,97.5593455 164.819895,97.9029818 C164.819895,97.9029818 165.299115,97.8858 166.257555,97.8514364 C167.556665,97.8514364 168.20622,98.1720818 168.20622,98.8134545 C168.20622,99.1570091 168.091305,99.4604727 167.861475,99.7239273 C167.631645,99.9873 167.307275,100.119027 166.88755,100.119027 C166.46701,100.119027 166.099445,100.015936 165.784855,99.8097545 L164.761215,99.8097545 C164.839455,100.703045 164.87939,101.550518 164.87939,102.352255 L164.70172,108.725482 C164.70172,110.042509 165.18746,110.701064 166.15894,110.701064 L166.15894,110.701064 Z" id="Fill-27" fill="#FFFFFF"></path>
                <path d="M174.958495,92.3026909 L175.07667,100.754591 C174.919375,101.086691 174.84032,101.722336 174.84032,102.661445 L174.683025,108.261655 C174.683025,109.876418 175.136165,110.683882 176.04163,110.683882 L177.714825,110.632336 C179.15819,110.632336 179.88028,110.975891 179.88028,111.663 C179.88028,111.915 179.755585,112.123964 179.506195,112.290055 C179.256805,112.456145 178.974815,112.556291 178.660225,112.590655 C177.675705,112.315827 176.474395,112.178373 175.05711,112.178373 C174.624345,112.396009 174.207065,112.504827 173.8069,112.504827 C173.406735,112.504827 173.095405,112.384555 172.872095,112.144009 C172.648785,111.903545 172.53713,111.640091 172.53713,111.353809 L172.930775,95.6353909 L172.930775,95.3776636 C172.852535,94.6447364 172.8126,93.5453455 172.8126,92.0794091 C172.8126,89.8576364 173.27878,88.7467909 174.210325,88.7467909 C174.48661,88.7467909 174.725405,88.8326182 174.929155,89.0044364 C175.132905,89.1762545 175.23478,89.3823545 175.23478,89.6229 L174.958495,92.3026909 Z" id="Fill-28" fill="#FFFFFF"></path>
                <path d="M191.672515,99.3287455 C191.672515,99.5922 190.891745,99.7582091 189.330205,99.8269364 C186.98056,99.9300273 185.46466,99.9815727 184.782505,99.9815727 C183.574675,99.9815727 182.971575,99.6437455 182.971575,98.9680091 C182.971575,98.7046364 183.752345,98.5385455 185.313885,98.4698182 C187.66353,98.3668091 189.17291,98.3152636 189.842025,98.3152636 C191.06208,98.3152636 191.672515,98.6530909 191.672515,99.3287455 L191.672515,99.3287455 Z" id="Fill-29" fill="#FFFFFF"></path>
                <path d="M203.15016,94.2782727 L203.20884,96.3396818 L203.18928,99.7067455 C203.18928,99.9930273 203.1958,100.330855 203.20884,100.720227 C203.22188,101.1096 203.238995,101.622109 203.258555,102.257755 C203.278115,102.893318 203.317235,103.523236 203.37673,104.147427 C203.43541,104.771536 203.504685,105.430091 203.582925,106.122927 C203.66198,106.815764 203.767115,107.457136 203.89833,108.046964 C204.029545,108.636709 204.1738,109.172127 204.331095,109.653136 C204.68562,110.695336 205.1518,111.216355 205.72882,111.216355 C206.50307,111.216355 207.093945,110.580791 207.50063,109.309582 C208.104545,107.419909 208.406095,105.095045 208.406095,102.335073 L208.46559,98.7103636 C208.46559,96.1679455 208.337635,94.4558182 208.081725,93.5739818 C207.825815,92.6921455 207.586205,92.0278636 207.362895,91.5812182 C206.91709,90.6764727 206.24064,90.2241 205.335175,90.2241 L205.256935,90.2241 C203.851875,90.2241 203.15016,91.5754909 203.15016,94.2782727 L203.15016,94.2782727 Z M210.631045,102.558355 C210.631045,109.303855 209.04913,112.676564 205.886115,112.676564 C202.97249,112.676564 201.33923,109.481318 200.984705,103.090909 C200.958625,102.4839 200.94477,101.876973 200.94477,101.269964 L200.92521,99.1226455 L200.92521,98.4355364 C200.92521,93.4766182 201.758955,90.4131 203.42563,89.2449 C203.832315,88.9586182 204.285455,88.8039818 204.784235,88.7810727 C205.16484,88.8956182 205.630205,89.0015727 206.18196,89.0989364 C206.7329,89.1963 207.139585,89.2964455 207.402015,89.3995364 C207.887755,89.5942636 208.412615,90.1009636 208.97741,90.9198818 C209.54139,91.7387182 209.95867,92.8323818 210.22762,94.2009545 C210.49657,95.5695273 210.631045,96.9409636 210.631045,98.3152636 L210.631045,102.558355 Z" id="Fill-30" fill="#FFFFFF"></path>
                <path d="M220.572415,103.108091 L219.86418,103.125273 C219.483575,103.125273 219.18121,103.070864 218.958715,102.962045 C218.735405,102.853227 218.62375,102.635673 218.62375,102.3093 C218.62375,101.982845 218.745185,101.733791 218.988055,101.561973 C219.230925,101.390236 219.529215,101.304327 219.88374,101.304327 L219.88374,101.321509 C222.508855,101.321509 223.821005,101.682245 223.821005,102.403718 L223.38824,104.9634 L223.584655,108.691118 C223.584655,109.366855 223.525975,109.945145 223.4078,110.426155 C221.845445,111.674455 220.461575,112.298645 219.253745,112.298645 C218.61071,112.298645 218.019835,112.146873 217.481935,111.843409 C216.944035,111.539945 216.419175,111.021709 215.907355,110.288782 C215.395535,109.555773 214.948915,108.161427 214.56831,106.105745 C214.187705,104.050064 213.99781,102.621355 213.99781,101.8197 C213.99781,101.018045 214.01737,100.353764 214.05649,99.8269364 C214.09561,99.3001909 214.155105,98.7017727 214.233345,98.0317636 C214.3124,97.3618364 214.35804,96.9266455 214.37108,96.7261909 C214.384935,96.5258182 214.407755,96.2395364 214.440355,95.8672636 C214.472955,95.4950727 214.50637,95.1400636 214.53897,94.8022364 C214.57157,94.4644091 214.644105,93.9891273 214.75576,93.3763909 C214.8666,92.7636545 214.988035,92.2798636 215.11925,91.9247727 C215.250465,91.5697636 215.441175,91.1660727 215.690565,90.7137 C215.939955,90.2613273 216.228465,89.9091818 216.55691,89.6571818 C217.35724,89.0617091 218.285525,88.7638909 219.34258,88.7638909 C220.39882,88.7638909 220.92694,89.0617091 220.92694,89.6571818 C220.92694,89.9320909 220.812025,90.1582364 220.58301,90.3357818 C220.35318,90.5133273 220.08749,90.6020182 219.785125,90.6020182 L219.056515,90.5161909 C218.269225,90.5161909 217.672645,91.3178455 217.265145,92.9211545 C216.8715,94.4787273 216.64167,95.8815818 216.57647,97.1298818 C216.458295,99.0424636 216.3988,100.316536 216.3988,100.952182 C216.3988,101.587745 216.402875,102.080209 216.409395,102.429491 C216.415915,102.778855 216.428955,103.214045 216.448515,103.735064 C216.468075,104.256164 216.500675,104.717127 216.54713,105.117955 C216.59277,105.518782 216.655525,105.962564 216.733765,106.4493 C216.81282,106.936036 216.908175,107.359773 217.019015,107.720509 C217.13067,108.081327 217.268405,108.442064 217.433035,108.8028 C217.59685,109.163536 217.783485,109.458409 217.993755,109.6875 C218.466455,110.202873 219.030435,110.460518 219.68651,110.460518 C220.85522,110.460518 221.42572,108.485018 221.39964,104.533936 L221.39964,103.245545 C221.229305,103.153909 220.95302,103.108091 220.572415,103.108091 L220.572415,103.108091 Z" id="Fill-31" fill="#FFFFFF"></path>
                <path d="M239.491825,104.740036 C241.302755,95.7499364 242.41849,89.4911727 242.838215,85.9638273 L242.838215,85.7576455 C242.90423,85.4484545 243.077825,85.2051273 243.359815,85.0275818 C243.64262,84.8500364 243.92461,84.7613455 244.2066,84.7613455 C244.48859,84.7613455 244.70212,84.8070818 244.846375,84.8987182 C245.16178,85.0934455 245.319075,85.3453636 245.319075,85.6546364 C245.319075,88.4375182 245.403835,92.6062364 245.574985,98.1606273 C245.74532,103.7151 245.830895,107.883736 245.830895,110.6667 C245.830895,111.365264 245.561945,111.915 245.02323,112.315827 C244.73472,112.487645 244.557865,112.521927 244.49185,112.418918 C243.95395,112.544836 243.6524,112.447555 243.586385,112.126827 C243.560305,111.989455 243.547265,111.817636 243.547265,111.611536 C243.547265,111.611536 243.553785,111.422536 243.566825,111.044618 C243.514665,109.258036 243.48777,107.860827 243.48777,106.852991 C243.48777,105.845236 243.49755,104.453755 243.517925,102.678627 C243.537485,100.9035 243.534225,97.5365182 243.50733,92.5776 C243.363075,93.3105273 243.058265,94.6934182 242.592085,96.7261909 C242.12672,98.7590455 241.808055,100.236355 241.63772,101.158282 C241.46657,102.080209 241.328835,102.850364 241.2237,103.468827 C241.11938,104.087291 241.017505,104.639809 240.91889,105.126545 C240.820275,105.613282 240.69884,106.108609 240.554585,106.612527 C240.253035,107.677555 239.819455,108.210109 239.255475,108.210109 C238.41521,108.210109 237.995485,107.116445 237.995485,104.929036 C237.83819,103.806655 237.40461,101.559109 236.696375,98.1864 C235.987325,94.8136909 235.514625,92.4974182 235.27909,91.2376636 C235.252195,93.4136182 235.239155,95.0455636 235.239155,96.1335818 L235.57412,110.769709 C235.57412,111.273627 235.37037,111.714545 234.963685,112.092464 C234.29457,112.092464 233.84143,111.897818 233.60508,111.508445 C233.36873,111.119073 233.25137,110.592245 233.25137,109.927964 L233.389105,104.052927 L233.25137,90.4302818 C233.25137,88.9070727 233.27093,87.3896727 233.31005,85.8779182 L234.432305,85.3281818 C235.180475,85.3969091 236.013405,87.4583182 236.932725,91.5124909 C237.66704,94.7191909 238.267695,97.6738909 238.733875,100.376673 C239.19924,103.079455 239.45189,104.533936 239.491825,104.740036 L239.491825,104.740036 Z" id="Fill-32" fill="#FFFFFF"></path>
                <path d="M254.80812,91.5984 L254.729065,96.1335818 C254.729065,98.2751727 254.939335,100.073209 255.35906,101.527609 L255.35906,101.544791 C255.175685,102.289255 255.08359,103.182545 255.08359,104.224664 L255.418555,110.546427 C255.418555,111.691636 255.030615,112.264282 254.256365,112.264282 C253.81056,112.264282 253.482115,112.081009 253.27266,111.714545 C253.06239,111.348082 252.957255,110.941527 252.957255,110.494882 L253.27266,104.877491 C253.27266,103.663555 253.180565,101.836882 252.996375,99.3974727 C252.813,96.9581455 252.720905,95.1314727 252.720905,93.9175364 L252.7804,90.8425636 C252.7804,89.1590727 252.655705,88.0653273 252.406315,87.5614091 L250.220485,87.7504091 C249.879815,87.7504091 249.57419,87.6616364 249.30524,87.4840909 C249.03629,87.3066273 248.901815,87.0775364 248.901815,86.7969818 C248.901815,86.5164273 249.22374,86.2758818 249.866775,86.0755091 C250.50981,85.8750545 251.2971,85.7290091 252.228645,85.6374545 C253.84316,85.4770909 255.201765,85.3969091 256.30446,85.3969091 C256.63209,85.3969091 256.93038,85.4914091 257.200145,85.6804091 C257.469095,85.8693273 257.60357,86.1070091 257.60357,86.3932909 C257.60357,86.6795727 257.485395,86.9058 257.249045,87.0718091 C257.012695,87.2379 256.724185,87.3209455 256.3827,87.3209455 L254.945855,87.2522182 C254.761665,87.2522182 254.62393,87.2579455 254.53265,87.2694 C254.716025,88.6207909 254.80812,90.0638182 254.80812,91.5984 L254.80812,91.5984 Z" id="Fill-33" fill="#FFFFFF"></path>
                <path d="M260.71361,87.9221455 C260.71361,86.3875636 261.21891,85.6202727 262.22951,85.6202727 C263.46342,85.6202727 264.5327,85.8779182 265.43898,86.3932909 C267.27599,87.4125818 268.194495,89.0788909 268.194495,91.3923 C268.194495,93.1788 267.374605,95.0799273 265.73401,97.0956 C266.875825,98.5041818 267.56776,99.3344727 267.81063,99.5864727 C268.0535,99.8383909 268.26703,100.098982 268.450405,100.368082 C268.634595,100.637264 268.73973,100.803273 268.76581,100.866273 C268.79189,100.929273 268.83753,101.1096 268.903545,101.407418 C268.96956,101.705155 269.00868,101.9628 269.02172,102.180436 C269.03476,102.741627 269.097515,103.405827 269.208355,104.173118 C269.32001,104.940491 269.395805,105.369955 269.434925,105.461591 C269.474045,105.553145 269.425145,105.8481 269.28741,106.346291 C269.149675,106.8444 269.05432,107.176582 269.00216,107.342591 C268.949185,107.508682 268.877465,107.737691 268.78537,108.029782 C268.693275,108.321791 268.615035,108.539427 268.54902,108.682527 C268.48382,108.825709 268.391725,109.014627 268.27355,109.249445 C268.155375,109.484182 268.0372,109.661727 267.919025,109.782 C267.80085,109.902191 267.656595,110.056827 267.48626,110.245827 C267.31511,110.434745 267.131735,110.589382 266.934505,110.709655 C266.73809,110.829845 266.51478,110.970164 266.26539,111.130527 C265.43898,111.634364 264.70059,111.957955 264.051035,112.101055 C263.40148,112.244236 263.037175,112.315827 262.95812,112.315827 L262.76089,112.315827 C262.026575,112.315827 261.560395,112.270009 261.363165,112.178373 C260.98256,111.995182 260.792665,111.748909 260.792665,111.439718 L260.989895,102.781718 L260.71361,88.4890636 L260.71361,87.9221455 Z M264.41534,98.5385455 L264.41534,98.5213636 L263.037175,98.5213636 C263.15535,101.430327 263.21403,105.415773 263.21403,110.4777 C264.51314,110.294509 265.53678,109.753364 266.28495,108.854345 C267.03312,107.955327 267.407205,106.898809 267.407205,105.684873 C267.407205,101.722336 266.409645,99.3402 264.41534,98.5385455 L264.41534,98.5385455 Z M263.45038,87.6129545 C263.082815,87.6129545 262.89944,88.0338273 262.89944,88.8755727 C262.89944,89.7173182 262.92552,91.0400727 262.97768,92.8438364 C263.030655,94.6476 263.056735,95.9560364 263.056735,96.7691455 C264.01436,96.5745 264.835065,95.5437545 265.51722,93.6769909 C265.884785,92.6806909 266.121135,92.0794091 266.22627,91.8732273 L266.22627,90.6192 C266.22627,89.9320909 265.94754,89.2592182 265.389265,88.6007455 C264.831805,87.9421909 264.18551,87.6129545 263.45038,87.6129545 L263.45038,87.6129545 Z" id="Fill-34" fill="#FFFFFF"></path>
                <path d="M280.99081,92.3026909 L281.108985,100.754591 C280.95169,101.086691 280.872635,101.722336 280.872635,102.661445 L280.71534,108.261655 C280.71534,109.876418 281.16848,110.683882 282.073945,110.683882 L283.74714,110.632336 C285.19132,110.632336 285.912595,110.975891 285.912595,111.663 C285.912595,111.915 285.7879,112.123964 285.53851,112.290055 C285.28912,112.456145 285.00713,112.556291 284.69254,112.590655 C283.70802,112.315827 282.50671,112.178373 281.089425,112.178373 C280.65666,112.396009 280.23938,112.504827 279.839215,112.504827 C279.43905,112.504827 279.12772,112.384555 278.90441,112.144009 C278.6811,111.903545 278.569445,111.640091 278.569445,111.353809 L278.96309,95.6353909 L278.96309,95.3776636 C278.88485,94.6447364 278.844915,93.5453455 278.844915,92.0794091 C278.844915,89.8576364 279.311095,88.7467909 280.243455,88.7467909 C280.518925,88.7467909 280.758535,88.8326182 280.96147,89.0044364 C281.16522,89.1762545 281.267095,89.3823545 281.267095,89.6229 L280.99081,92.3026909 Z" id="Fill-35" fill="#FFFFFF"></path>
                <path d="M296.070755,96.3998182 C296.241905,97.4592 296.34704,98.7848182 296.38616,100.376673 C296.42528,101.968527 296.44484,103.191136 296.44484,104.044336 C296.44484,104.897536 296.44158,105.447273 296.43506,105.693464 C296.42854,105.939655 296.41224,106.280427 296.38616,106.715618 C296.36008,107.150809 296.323405,107.523 296.277765,107.832191 C296.232125,108.141382 296.16285,108.499336 296.070755,108.905891 C295.979475,109.312445 295.86456,109.661727 295.726825,109.953736 C295.58909,110.245827 295.41794,110.543564 295.215005,110.847027 C295.011255,111.150573 294.778165,111.3939 294.515735,111.577173 C293.925675,112.012364 293.29894,112.229918 292.63553,112.229918 C291.972935,112.229918 291.418735,112.138282 290.972115,111.955091 C290.972115,113.191936 290.748805,114.382964 290.303,115.528255 C290.10577,116.009264 289.8629,116.249727 289.57439,116.249727 C289.28588,116.249727 289.06909,116.158091 288.924835,115.9749 C288.78058,115.791627 288.708045,115.585527 288.708045,115.356436 L288.708045,115.322073 C288.76102,114.841064 288.941135,113.990727 289.25002,112.771064 C289.55809,111.5514 289.712125,110.752527 289.712125,110.374609 C289.712125,109.996691 289.702345,109.759091 289.682785,109.661727 C289.663225,109.564364 289.640405,109.481318 289.61351,109.412673 C289.58743,109.343945 289.55809,109.258036 289.52549,109.154945 C289.49289,109.051855 289.446435,108.894436 289.387755,108.682527 C289.32826,108.4707 289.2598,108.184336 289.180745,107.8236 C289.10169,107.462864 289.03649,107.0649 288.98433,106.629709 C288.931355,106.194518 288.882455,105.839509 288.836,105.5646 C288.79036,105.289773 288.75776,104.886082 288.7382,104.353527 C288.717825,103.820973 288.698265,103.457373 288.678705,103.262727 C288.659145,103.068 288.646105,102.658582 288.639585,102.034391 C288.633065,101.410282 288.629805,101.052409 288.629805,100.960773 L288.629805,94.2610909 C288.629805,93.5968909 288.652625,93.1015636 288.698265,92.7751091 C288.74472,92.4487364 288.79036,92.1109091 288.836,91.7616273 C288.882455,91.4122636 288.944395,91.1145273 289.02345,90.8683364 C289.10169,90.6220636 289.197045,90.3529636 289.3087,90.0609545 C289.420355,89.7688636 289.55483,89.5226727 289.712125,89.3222182 C289.870235,89.1218455 290.04057,88.9357091 290.223945,88.7638909 C290.61759,88.4203364 291.03813,88.2486 291.483935,88.2486 C291.930555,88.2486 292.36332,88.3516091 292.78386,88.5577909 L292.78386,88.4890636 C293.07237,87.0345818 293.37392,85.7576455 293.689325,84.6582545 L295.14573,84.6582545 C295.14573,85.2651818 295.017775,86.1327 294.761865,87.2608091 C294.505955,88.3888364 294.36496,89.2162636 294.33888,89.7430909 L294.33888,90.7738364 C295.309545,92.0679545 295.795285,93.0586091 295.795285,93.7457182 L295.795285,94.0206273 C295.808325,94.5473727 295.90042,95.3405182 296.070755,96.3998182 L296.070755,96.3998182 Z M292.704805,110.769709 C293.925675,110.769709 294.535295,108.765573 294.535295,104.757218 C294.535295,99.2601 294.292425,95.2402909 293.8075,92.6978727 C293.61027,93.9805364 293.426895,95.6296636 293.255745,97.6452545 C292.8621,102.501082 292.38288,106.034155 291.8189,108.244473 C291.63471,108.885845 291.54343,109.392627 291.54343,109.764818 C291.54343,110.137009 291.62167,110.397518 291.77978,110.546427 C291.937075,110.695336 292.245145,110.769709 292.704805,110.769709 L292.704805,110.769709 Z M291.169345,89.7259091 C290.59151,90.8139273 290.303,93.7800818 290.303,98.6244545 C290.303,99.5177455 290.37146,100.548491 290.51001,101.716609 C290.647745,102.884727 290.722725,103.503191 290.735765,103.571918 C290.86698,102.586991 291.09029,101.1726 291.405695,99.3287455 C292.10089,95.2517455 292.448895,92.1538636 292.448895,90.0351818 L291.77978,90.0351818 L291.169345,89.5541727 L291.169345,89.7259091 Z" id="Fill-36" fill="#FFFFFF"></path>
                <path d="M300.520655,103.022182 L300.69751,91.8732273 C300.69751,91.0601182 300.68447,90.4531909 300.65839,90.0523636 L300.65839,89.7259091 C300.65839,88.7525182 301.038995,88.2657818 301.800205,88.2657818 C302.403305,88.2657818 303.21749,88.4146091 304.24113,88.7124273 C305.26477,89.0101636 305.77659,89.3594455 305.77659,89.7602727 C305.77659,90.2871 305.97708,91.0572545 306.377245,92.0708182 C306.77741,93.0843818 306.9779,93.8488091 306.9779,94.3641818 C306.9779,95.9560364 306.846685,97.1041909 306.58344,97.8084818 C306.32101,98.5127727 305.907805,99.2142818 305.343825,99.9128455 C306.118075,100.565673 306.623375,101.387373 306.859725,102.378027 C307.09526,103.3686 307.213435,104.364982 307.213435,105.367091 C307.213435,106.369118 307.148235,107.179445 307.01702,107.797827 C306.885805,108.416291 306.669015,109.006036 306.367465,109.567227 C306.0651,110.128418 305.697535,110.615155 305.26477,111.027436 C304.30633,111.920727 303.01374,112.367373 301.386185,112.367373 C300.809165,112.367373 300.44812,112.149736 300.303865,111.714545 C300.18569,111.3939 300.126195,110.993073 300.126195,110.512064 L300.520655,103.022182 Z M302.66655,107.832191 C302.4954,108.084191 302.41064,108.473564 302.41064,109.000309 L302.41064,110.580791 C303.27617,110.397518 303.93306,109.930827 304.378865,109.180718 C304.825485,108.430609 305.04798,107.734827 305.04798,107.093536 C305.04798,106.452164 305.0382,105.939655 305.01864,105.556009 C304.99908,105.172364 304.942845,104.705673 304.851565,104.155936 C304.75947,103.606282 304.634775,103.125273 304.47748,102.712991 C304.096875,101.716609 303.506,101.138236 302.70567,100.977955 C302.600535,102.329345 302.548375,103.737927 302.548375,105.203864 C302.548375,106.6698 302.587495,107.545909 302.66655,107.832191 L302.66655,107.832191 Z M302.66655,89.8977273 L302.66655,98.9164636 C304.01782,98.8821 304.69427,97.4563364 304.69427,94.6390091 C304.69427,93.8946273 304.595655,93.1216091 304.398425,92.3198727 C304.00478,90.7738364 303.42776,89.9664545 302.66655,89.8977273 L302.66655,89.8977273 Z" id="Fill-37" fill="#FFFFFF"></path>
            </g>
        </g>
    </g>
</svg>